<svg viewBox="0 0 90 90" version="1.1" xmlns="http://www.w3.org/2000/svg"><g class="nc-icon-wrapper"><g id="Page-1" stroke="none" fill="none" fill-rule="evenodd"><g id="Artboard" fill-rule="nonzero"><g id="pivot" transform="translate(.556 .556)"><path d="M77.778 88.89H11.11c-6.137 0-11.112-4.975-11.112-11.112V11.11C-.001 4.974 4.974-.001 11.11-.001h66.667c6.137 0 11.112 4.975 11.112 11.112v66.667c0 6.137-4.975 11.112-11.112 11.112zm-50-27.779H11.11v16.667h16.667V61.11zm50-22.22H33.332v38.887h44.446V38.89zM49.186 60.298l-6.37 6.366 6.37 6.371-3.93 3.93-10.295-10.3 10.296-10.297a1753.52 1753.52 0 0 1 3.93 3.93zM27.778 38.89H11.11v16.667h16.667V38.89zm45.258 15.85l-6.37-6.367-6.368 6.367-3.929-3.925 10.296-10.3 10.3 10.3-3.93 3.925zM27.778 11.111H11.11v16.667h16.667V11.11zm27.779 0H33.332v16.667h22.225V11.11zm22.22 0H61.112v16.667h16.667V11.11z" id="Shape"/></g></g></g></g></svg>