<?xml version="1.0" encoding="UTF-8"?>
<svg width="300px" height="55px" viewBox="0 0 300 55" version="1.1" xmlns="http://www.w3.org/2000/svg" xmlns:xlink="http://www.w3.org/1999/xlink">
    <!-- Generator: Sketch 55 (78076) - https://sketchapp.com -->
    <title>Horizontal One-Color White Logo</title>
    <desc>Created with Sketch.</desc>
    <defs>
        <polygon id="path-1" points="0.148387097 0.509516129 27.1508858 0.509516129 27.1508858 43.4966129 0.148387097 43.4966129"></polygon>
        <polygon id="path-3" points="0.131379928 0.544995272 17.5967742 0.544995272 17.5967742 31.8609877 0.131379928 31.8609877"></polygon>
    </defs>
    <g id="Page-1" stroke="none" stroke-width="1" fill="none" fill-rule="evenodd">
        <g id="Logos" transform="translate(-84.000000, -310.000000)">
            <g id="Horizontal-One-Color-White-Logo" transform="translate(84.000000, 310.000000)">
                <g id="Group-226">
                    <path d="M23.5648387,0.0990322581 C22.1325806,3.60225806 20.0003226,9.49419355 20.0406452,14.1667742 C20.0470968,14.8812903 20.1003226,15.5683871 20.2148387,16.2119355 C20.926129,20.2054839 23.4341935,22.2796774 26.61,24.9070968 C28.7487097,26.6764516 31.1712903,28.6812903 33.2422581,31.4635484 C35.1470968,34.0216129 35.7180645,39.0296774 33.8890323,42.9587097 C33.8696774,43.0006452 33.8519355,43.0425806 33.8325806,43.086129 C35.7793548,41.736129 49.6245161,29.7603226 46.6229032,23.5877419 C43.4890323,17.1441935 24.5341935,1.63129032 23.5648387,0.0990322581" id="Fill-221" fill="#FFFFFE"></path>
                    <g id="Group-225" transform="translate(0.000000, 11.290323)">
                        <mask id="mask-2" fill="white">
                            <use xlink:href="#path-1"></use>
                        </mask>
                        <g id="Clip-224"></g>
                        <path d="M20.5793548,18.6885484 C18.4406452,16.9191935 16.0180645,14.9159677 13.9470968,12.1320968 C12.0422581,9.57403226 11.4729032,4.56596774 13.3003226,0.636935484 C13.3212903,0.595 13.3374194,0.553064516 13.3583871,0.509516129 C11.41,1.85951613 -2.43354839,13.8353226 0.568064516,20.0079032 C3.70193548,26.4514516 22.6567742,41.9643548 23.6245161,43.4966129 C25.0567742,39.995 27.1906452,34.1030645 27.1503226,29.428871 C27.143871,28.7143548 27.0890323,28.0272581 26.9745161,27.3837097 C26.2632258,23.3901613 23.7551613,21.3159677 20.5793548,18.6885484" id="Fill-223" fill="#FFFFFE" mask="url(#mask-2)"></path>
                    </g>
                </g>
                <g id="Group-245" transform="translate(54.838710, 11.290323)" fill="#FFFFFE">
                    <path d="M46.6469355,36.3740323 C45.8308065,37.3030645 44.7308065,37.6433871 43.5727419,37.8385484 C43.0469355,37.9272581 42.5082258,37.9385484 41.9743548,37.9837097 C41.9662903,38.011129 41.9582258,38.0385484 41.9501613,38.0643548 C41.0630645,37.8998387 40.1501613,37.8224194 39.2969355,37.5530645 C37.0179032,36.8320968 36.7308065,34.6998387 37.7308065,33.0369355 C37.8146774,32.8966129 37.9195161,32.7691935 38.0098387,32.6337097 C38.3679032,32.0933871 38.7872581,31.9208065 39.4969355,31.9998387 C41.0162903,32.1659677 42.5582258,32.128871 44.088871,32.211129 C44.6324194,32.2417742 45.2001613,32.295 45.7066129,32.4772581 C47.3759677,33.078871 47.8275806,35.0320968 46.6469355,36.3740323 M40.8856452,13.9853226 C42.1340323,13.7127419 43.355,13.8337097 44.4275806,14.6175806 C45.5114516,15.4095161 46.0033871,16.9966129 45.6259677,18.4466129 C45.2582258,19.8627419 44.3340323,20.6804839 42.8985484,20.9256452 C42.6066129,20.9772581 42.3114516,21.0030645 42.0162903,21.0401613 C40.0904839,21.011129 38.6856452,20.0143548 38.3517742,18.3175806 C37.955,16.2901613 38.7598387,14.4498387 40.8856452,13.9853226 M49.8275806,29.095 C48.6598387,28.5095161 47.4033871,28.2579032 46.1227419,28.1885484 C44.5437097,28.1030645 42.9598387,28.145 41.3808065,28.0708065 C40.6904839,28.0385484 39.9872581,27.9208065 39.3259677,27.7240323 C38.5275806,27.4869355 38.1420968,26.8046774 38.3372581,26.011129 C38.4356452,25.611129 38.7033871,25.2385484 38.9582258,24.9014516 C39.0598387,24.7691935 39.3485484,24.6837097 39.5259677,24.7175806 C42.1695161,25.2159677 44.7195161,24.961129 47.1485484,23.7837097 C50.7840323,22.0208065 51.9227419,17.8562903 50.7259677,14.7724194 C50.3840323,13.8917742 49.7630645,13.1208065 49.238871,12.2482258 C49.255,12.2353226 49.3679032,12.1385484 49.4759677,12.0353226 C50.2614516,11.2804839 51.0662903,10.5466129 51.8243548,9.76435484 C52.5598387,9.00790323 52.5695161,8.04016129 51.921129,7.21596774 C51.2066129,6.30951613 49.5808065,5.76112903 48.4356452,7.12403226 C47.5727419,8.15306452 46.721129,9.19016129 45.8517742,10.2127419 C45.7727419,10.3079032 45.5775806,10.3933871 45.4679032,10.3627419 C43.9824194,9.95951613 42.4759677,9.86112903 40.9485484,9.9933871 C38.9227419,10.1659677 37.0324194,10.6966129 35.4082258,11.9933871 C32.3437097,14.4417742 31.7840323,19.6562903 34.7824194,22.4643548 C34.9953226,22.6643548 35.1582258,22.9191935 35.338871,23.1417742 C32.6759677,25.3240323 32.6662903,28.3837097 34.7340323,30.3772581 C34.5937097,30.4643548 34.4759677,30.5272581 34.3662903,30.6030645 C32.3033871,32.0304839 31.1775806,33.9369355 31.5227419,36.4982258 C31.8243548,38.745 33.2743548,40.1079032 35.271129,40.9627419 C37.1695161,41.7756452 39.1791935,41.9627419 41.2179032,41.9772581 C43.938871,41.9966129 46.5743548,41.6095161 48.9791935,40.261129 C51.3162903,38.9498387 52.7614516,37.0191935 52.8356452,34.2466129 C52.8985484,31.9159677 51.955,30.1579032 49.8275806,29.095" id="Fill-227"></path>
                    <path d="M125.646613,10.4903226 C123.927258,9.57580645 122.307903,10.1709677 121.685323,11.9870968 C120.986935,14.0258065 120.320806,16.0758065 119.664355,18.1290323 C118.846613,20.6919355 118.051452,23.2612903 117.253065,25.8290323 C117.136935,26.2048387 117.062742,26.5935484 116.969194,26.9758065 C116.941774,26.9741935 116.914355,26.9709677 116.886935,26.9677419 C116.738548,26.3693548 116.627258,25.7596774 116.435323,25.1774194 C114.974032,20.7451613 113.50629,16.316129 112.022419,11.8919355 C111.546613,10.4758065 110.65629,9.95967742 109.170806,10.1645161 C107.890161,10.3419355 106.814355,11.2322581 106.595,12.3209677 C106.445,13.0580645 106.711129,13.7322581 106.957903,14.4032258 C109.146613,20.4080645 111.340161,26.4129032 113.515968,32.4209677 C113.585323,32.6129032 113.572419,32.9032258 113.472419,33.0758065 C113.011129,33.8725806 112.554677,34.6806452 112.004677,35.4145161 C111.228871,36.4532258 110.18371,37.1564516 108.864355,37.2645161 C108.08371,37.3290323 107.290161,37.2209677 106.501452,37.1887097 C105.48371,37.1467742 104.738548,37.6 104.509516,38.4241935 C104.295,39.1887097 104.428871,39.9048387 104.890161,40.5467742 C105.53371,41.4467742 106.520806,41.6870968 107.520806,41.7629032 C110.959516,42.0225806 113.828871,40.8419355 116.109516,38.2451613 C117.780484,36.3435484 119.028871,34.1725806 119.967581,31.8467742 C121.377258,28.3451613 122.678871,24.8 124.00629,21.266129 C124.967581,18.7064516 125.914355,16.1403226 126.830484,13.5629032 C127.327258,12.1677419 126.907903,11.1596774 125.646613,10.4903226" id="Fill-229"></path>
                    <path d="M75.813871,16.0767742 C75.38,13.8235484 74.2719355,12.0009677 72.196129,10.8687097 C70.9332258,10.1783871 69.5558065,9.93967742 68.146129,9.9316129 C66.4832258,9.92354839 64.8654839,10.2122581 63.4929032,11.23 C62.746129,11.7816129 62.0880645,12.4525806 61.3703226,13.0864516 C61.3590323,13.0154839 61.3380645,12.8880645 61.3203226,12.7606452 C61.0558065,10.8735484 60.5670968,10.2848387 58.9380645,10.1348387 C57.5670968,10.0090323 56.4832258,10.6090323 56.3719355,12.146129 C56.3541935,12.3977419 56.3364516,12.6509677 56.3348387,12.9041935 C56.3332258,17.5751613 56.3332258,22.246129 56.3348387,26.9154839 C56.3348387,27.6477419 56.3235484,28.3783871 56.3364516,29.1090323 C56.3509677,29.9864516 56.496129,30.8396774 57.3187097,31.3348387 C58.3832258,31.9767742 59.5412903,31.9864516 60.6751613,31.5558065 C61.6558065,31.1832258 62.0396774,30.3590323 62.0412903,29.3509677 C62.0493548,25.5622581 62.0445161,21.7719355 62.0493548,17.9816129 C62.0493548,17.8058065 62.0348387,17.6009677 62.1154839,17.4622581 C63.0154839,15.9187097 64.2025806,14.7074194 66.0751613,14.5122581 C68.1864516,14.2929032 69.5477419,15.1364516 70.0783871,17.096129 C70.2864516,17.8622581 70.3525806,18.6832258 70.3590323,19.4816129 C70.3896774,22.763871 70.3687097,26.0477419 70.3767742,29.33 C70.3783871,30.5009677 70.9009677,31.28 71.9332258,31.6251613 C72.296129,31.746129 72.6929032,31.8090323 73.0751613,31.8122581 C74.0154839,31.8203226 74.93,31.7025806 75.5783871,30.896129 C76.0283871,30.3380645 76.0816129,29.6670968 76.0832258,28.9929032 C76.0896774,25.6348387 76.1041935,22.2767742 76.0751613,18.9203226 C76.0654839,17.9703226 75.9929032,17.0074194 75.813871,16.0767742" id="Fill-231"></path>
                    <path d="M105.201774,13.2422581 C105.284032,12.8551613 105.31629,12.4422581 105.285645,12.0470968 C105.203387,10.9954839 104.519516,10.3729032 103.464677,10.3470968 C102.867903,10.3309677 102.269516,10.3422581 101.674355,10.3406452 C101.322742,10.3406452 100.972742,10.3406452 100.513065,10.3406452 C100.595323,9.06 100.582419,7.84548387 100.769516,6.66322581 C100.99371,5.26 101.971129,4.57774194 103.396935,4.69548387 C103.953387,4.74225806 104.501774,4.9083871 105.051774,5.02451613 C105.955,5.21645161 106.595323,4.91 106.951774,4.10516129 C107.34371,3.22129032 107.146935,1.9616129 106.414677,1.34709677 C106.017903,1.01322581 105.508226,0.768064516 105.008226,0.608387097 C103.853387,0.235806452 102.655,0.258387097 101.46629,0.418064516 C99.421129,0.695483871 97.6775806,1.52774194 96.4275806,3.23258065 C95.4259677,4.60032258 94.9953226,6.1616129 94.9195161,7.82774194 C94.8824194,8.64387097 94.9130645,9.4616129 94.9130645,10.3487097 C94.2517742,10.3487097 93.6824194,10.3067742 93.121129,10.3632258 C92.7679032,10.4003226 92.388871,10.5212903 92.0937097,10.7148387 C91.405,11.1664516 91.1662903,12.3212903 91.4856452,13.3293548 C91.7517742,14.1616129 92.321129,14.56 93.2808065,14.5696774 C93.8098387,14.5745161 94.338871,14.5696774 94.8953226,14.5696774 L94.8953226,15.1858065 C94.8953226,19.7374194 94.8953226,24.2890323 94.8969355,28.8406452 C94.8969355,29.1083871 94.8904839,29.3777419 94.9162903,29.6454839 C94.9969355,30.4890323 95.3582258,31.1454839 96.1679032,31.5051613 C97.0985484,31.9196774 98.0582258,31.9116129 99.0066129,31.6341935 C99.8243548,31.393871 100.353387,30.8180645 100.514677,29.9696774 C100.582419,29.6212903 100.579194,29.2567742 100.579194,28.9003226 C100.584032,24.3180645 100.582419,19.7374194 100.584032,15.1567742 C100.584032,14.9696774 100.600161,14.7825806 100.609839,14.5664516 C101.634032,14.5664516 102.603387,14.576129 103.572742,14.5632258 C104.401774,14.5503226 105.029194,14.0551613 105.201774,13.2422581" id="Fill-233"></path>
                    <path d="M13.3324194,19.7643548 C12.2146774,19.2837097 11.0453226,18.9272581 9.905,18.4982258 C8.98887097,18.1530645 8.07112903,17.811129 7.17758065,17.4127419 C6.74209677,17.2191935 6.39048387,16.8756452 6.24532258,16.3820968 C5.98887097,15.5127419 6.39693548,14.7562903 7.3566129,14.378871 C8.40177419,13.9659677 9.49209677,13.9595161 10.571129,14.1659677 C11.5179032,14.3466129 12.4437097,14.628871 13.3808065,14.8643548 C14.4824194,15.1401613 15.4727419,14.6224194 15.7195161,13.645 C15.9759677,12.6304839 15.5824194,11.5772581 14.6727419,11.0562903 C14.1630645,10.7627419 13.6066129,10.5143548 13.0404839,10.3643548 C11.1275806,9.85629032 9.18080645,9.795 7.22919355,10.0966129 C5.43403226,10.3740323 3.78887097,10.9869355 2.40983871,12.2401613 C0.146935484,14.2966129 -0.483709677,19.2982258 3.38564516,21.3820968 C4.68403226,22.0820968 6.12435484,22.5159677 7.50177419,23.0675806 C8.41145161,23.4304839 9.34048387,23.7466129 10.2259677,24.1579032 C10.6985484,24.3756452 11.0679032,24.7740323 11.1808065,25.3320968 C11.3937097,26.3853226 10.8533871,27.2482258 9.73887097,27.6191935 C8.48725806,28.0369355 7.20177419,27.9966129 5.93725806,27.7595161 C4.91951613,27.5691935 3.93080645,27.2224194 2.92274194,26.9691935 C1.93241935,26.7208065 1.04693548,27.1756452 0.751774194,28.0530645 C0.435645161,28.9982258 0.722741935,30.0627419 1.52112903,30.6627419 C1.90822581,30.9546774 2.34693548,31.2030645 2.79854839,31.3772581 C4.2066129,31.9224194 5.68887097,32.0595161 6.54693548,32.0643548 C9.19693548,32.0482258 11.1662903,31.8127419 13.0146774,30.9433871 C15.9291935,29.5724194 17.4066129,26.5546774 16.6275806,23.4659677 C16.1759677,21.6772581 14.988871,20.4772581 13.3324194,19.7643548" id="Fill-235"></path>
                    <path d="M27.3654839,12.9129032 C27.3622581,11.4709677 26.7912903,10.5790323 25.6493548,10.3258065 C25.1041935,10.2048387 24.5187097,10.1596774 23.9654839,10.216129 C22.3719355,10.3806452 21.6574194,11.2193548 21.6525806,12.8258065 C21.6493548,14.183871 21.6525806,15.5419355 21.6525806,16.9 C21.6525806,21.0322581 21.6493548,25.1645161 21.6558065,29.2967742 C21.6574194,30.4887097 22.1493548,31.2483871 23.1864516,31.6112903 C23.5590323,31.7419355 23.9719355,31.8096774 24.3687097,31.8129032 C25.2912903,31.8193548 26.1896774,31.7048387 26.8380645,30.9225806 C27.2977419,30.3677419 27.3622581,29.7 27.363871,29.0258065 C27.3719355,26.3548387 27.3670968,23.6854839 27.3670968,21.0145161 C27.3670968,18.3129032 27.3735484,15.6129032 27.3654839,12.9129032" id="Fill-237"></path>
                    <path d="M87.756129,21.0020968 L87.7464516,21.0020968 C87.7464516,18.1520968 87.7545161,15.3037097 87.7416129,12.4537097 C87.7367742,11.481129 87.1577419,10.6633871 86.2625806,10.3746774 C85.3625806,10.0843548 84.4303226,10.0666129 83.5367742,10.3875806 C82.6803226,10.6956452 82.1932258,11.3440323 82.1029032,12.2617742 C82.0722581,12.5730645 82.0577419,12.8859677 82.0577419,13.198871 C82.0545161,18.3166129 82.0545161,23.4327419 82.0577419,28.5504839 C82.0577419,28.9375806 82.0754839,29.3262903 82.1012903,29.7117742 C82.1658065,30.6279032 82.7335484,31.3456452 83.6093548,31.6133871 C84.3335484,31.8343548 85.0754839,31.881129 85.8158065,31.7327419 C86.8270968,31.531129 87.506129,30.948871 87.7077419,29.9053226 C87.7625806,29.615 87.7529032,29.3117742 87.7529032,29.0133871 C87.756129,26.3424194 87.756129,23.6730645 87.756129,21.0020968" id="Fill-239"></path>
                    <path d="M84.9395161,0.775806452 C84.8056452,0.775806452 84.6717742,0.767741935 84.5379032,0.777419355 C82.0959677,0.94516129 80.6701613,3.63709677 81.9782258,5.66935484 C82.8104839,6.96129032 84.058871,7.33548387 85.5508065,7.14193548 C87.4266129,6.9 88.741129,4.96290323 88.2169355,3.14354839 C87.7862903,1.65322581 86.5540323,0.758064516 84.9395161,0.775806452" id="Fill-241"></path>
                    <path d="M24.6317742,0.764516129 C22.5817742,0.727419355 21.1301613,2.04193548 21.0995161,3.96451613 C21.0720968,5.77741935 22.4833871,7.16290323 24.4108065,7.21290323 C26.3559677,7.26451613 27.8946774,5.85 27.918871,3.99354839 C27.9414516,2.20483871 26.5091935,0.798387097 24.6317742,0.764516129" id="Fill-243"></path>
                </g>
                <g id="Group-251" transform="translate(187.096774, 11.290323)">
                    <path d="M17.5180645,19.1756452 C17.5116129,18.2546774 17.4519355,17.3240323 17.2970968,16.4175806 C16.7664516,13.2998387 14.9019355,10.9966129 11.5906452,10.4240323 C9.33258065,10.0337097 7.14870968,10.2417742 5.20516129,11.5724194 C4.45193548,12.0885484 3.79225806,12.7417742 3.08741935,13.3337097 C3.11,12.8982258 3.15193548,12.4095161 3.15516129,11.9224194 C3.16483871,10.1466129 3.16322581,8.37080645 3.16483871,6.595 C3.16483871,5.05790323 3.16967742,3.51919355 3.1616129,1.98209677 C3.15677419,1.10951613 2.73580645,0.669193548 1.8616129,0.607903226 C1.65354839,0.593387097 1.44225806,0.598225806 1.23580645,0.619193548 C0.572903226,0.685322581 0.177741935,1.07080645 0.0970967742,1.72725806 C0.0712903226,1.93370968 0.0696774194,2.145 0.0696774194,2.35306452 C0.0680645161,11.5772581 0.0680645161,20.7998387 0.0696774194,30.0240323 C0.0696774194,30.2772581 0.0809677419,30.5320968 0.116451613,30.7820968 C0.176129032,31.1966129 0.406774194,31.4885484 0.795483871,31.6579032 C2.09548387,32.2304839 3.16322581,31.5530645 3.16322581,30.1514516 C3.16483871,25.8079032 3.16322581,21.4643548 3.17129032,17.1208065 C3.17129032,16.9079032 3.19870968,16.661129 3.3083871,16.4869355 C4.76645161,14.1498387 6.76967742,12.7337097 9.64064516,12.8966129 C11.3341935,12.9933871 12.7148387,13.6804839 13.5680645,15.2191935 C14.0454839,16.078871 14.2970968,17.0159677 14.3470968,17.9885484 C14.41,19.2256452 14.4277419,20.4643548 14.4325806,21.7014516 C14.4454839,24.611129 14.4358065,27.5224194 14.4406452,30.4320968 C14.4422581,31.1143548 14.7229032,31.5175806 15.2858065,31.7062903 C15.9987097,31.9433871 16.91,31.7869355 17.2390323,31.3337097 C17.3664516,31.161129 17.4390323,30.9369355 17.4858065,30.7240323 C17.5325806,30.5079032 17.526129,30.278871 17.5277419,30.0562903 C17.5293548,26.428871 17.5422581,22.8014516 17.5180645,19.1756452" id="Fill-246" fill="#FFFFFE"></path>
                    <g id="Group-250" transform="translate(95.161290, 0.000000)">
                        <mask id="mask-4" fill="white">
                            <use xlink:href="#path-3"></use>
                        </mask>
                        <g id="Clip-249"></g>
                        <path d="M17.5820968,19.2895161 C17.5740323,18.2943548 17.5062903,17.2879032 17.3304839,16.3104839 C16.9498387,14.1862903 16.0191935,12.3185484 14.0353226,11.3008065 C11.0562903,9.7733871 8.04177419,9.79435484 5.16758065,11.6395161 C4.42887097,12.1120968 3.81112903,12.7733871 3.13854839,13.3491935 C3.15790323,12.9620968 3.195,12.5443548 3.1966129,12.1282258 C3.20629032,8.80080645 3.20951613,5.47177419 3.21274194,2.14435484 C3.21274194,2.01048387 3.21435484,1.875 3.20145161,1.74112903 C3.14822581,1.1766129 2.83209677,0.802419355 2.2933871,0.652419355 C0.953064516,0.278225806 0.133709677,0.895967742 0.132096774,2.28145161 C0.130483871,2.31048387 0.132096774,2.34112903 0.132096774,2.37016129 C0.132096774,11.5798387 0.130483871,20.7879032 0.132096774,29.9959677 C0.132096774,30.2201613 0.132096774,30.4443548 0.153064516,30.6669355 C0.201451613,31.1959677 0.478870968,31.5427419 0.99016129,31.7104839 C2.32887097,32.1459677 3.21274194,31.5217742 3.21274194,30.1314516 C3.21435484,26.1169355 3.26919355,22.1008065 3.18209677,18.0879032 C3.15306452,16.8120968 3.60306452,15.8830645 4.43532258,15.0395161 C4.695,14.775 4.97241935,14.5217742 5.26274194,14.2895161 C6.95467742,12.9346774 8.87725806,12.5330645 10.9401613,13.1104839 C13.1095161,13.7169355 14.1272581,15.375 14.3853226,17.8782258 C14.4853226,18.841129 14.4756452,19.8153226 14.478871,20.7830645 C14.4901613,23.9766129 14.4853226,27.1717742 14.4820968,30.3653226 C14.4820968,30.9491935 14.661129,31.4298387 15.228871,31.6701613 C16.5385484,32.2233871 17.5853226,31.5330645 17.5933871,30.125 L17.5933871,29.9459677 C17.5933871,26.3943548 17.611129,22.841129 17.5820968,19.2895161" id="Fill-248" fill="#FFFFFE" mask="url(#mask-4)"></path>
                    </g>
                </g>
                <g id="Group-260" transform="translate(209.677419, 11.290323)" fill="#FFFFFE">
                    <path d="M36.1564516,26.2196774 C36.1548387,26.3551613 36.083871,26.5116129 35.9951613,26.6196774 C34.8483871,28.0083871 33.4725806,29.0616129 31.6629032,29.4116129 C30.4209677,29.6519355 29.2032258,29.5487097 28.0580645,28.9551613 C26.7354839,28.2680645 26.0403226,26.726129 26.416129,25.3406452 C26.6241935,24.5745161 27.1258065,24.0277419 27.8258065,23.7712903 C28.6403226,23.4712903 29.5016129,23.2196774 30.3596774,23.1390323 C32.2935484,22.9535484 34.2241935,23.0809677 36.1645161,23.5922581 C36.1645161,24.493871 36.1709677,25.3567742 36.1564516,26.2196774 M39.3403226,27.7696774 C39.2822581,24.5922581 39.2806452,21.4132258 39.2467742,18.2358065 C39.2387097,17.476129 39.2177419,16.7148387 39.1467742,15.9583871 C38.8983871,13.3116129 37.1387097,11.2906452 34.5516129,10.6583871 C31.6612903,9.95193548 28.8403226,10.2874194 26.0870968,11.3083871 C25.5290323,11.5148387 25.0048387,11.8712903 24.5403226,12.2503226 C24.1193548,12.5906452 24.1032258,13.2680645 24.3790323,13.7325806 C24.6322581,14.16 25.1548387,14.3374194 25.7177419,14.1712903 C25.9306452,14.1083871 26.1403226,14.0293548 26.3451613,13.9374194 C28.3274194,13.0519355 30.3951613,12.7841935 32.5435484,13.0712903 C34.366129,13.3148387 35.5306452,14.36 35.9290323,16.1519355 C36.2870968,17.7696774 36.1516129,19.4148387 36.1403226,21.0519355 C36.1403226,21.0729032 36.1080645,21.0954839 36.0790323,21.1293548 C35.4419355,21.0293548 34.8,20.9083871 34.1532258,20.8325806 C31.9612903,20.5793548 29.7741935,20.5825806 27.6258065,21.1454839 C26.1435484,21.5325806 24.783871,22.1616129 23.8983871,23.4987097 C22.2354839,26.0083871 23.1983871,29.7325806 25.9580645,31.1116129 C29.0064516,32.6374194 32.0064516,32.4051613 34.8387097,30.4922581 C35.3870968,30.1212903 35.8629032,29.643871 36.3983871,29.193871 C36.4225806,29.2970968 36.4467742,29.3922581 36.4709677,29.4874194 C36.6387097,30.1809677 36.7693548,30.8922581 37.3080645,31.4245161 C37.7774194,31.8890323 38.4596774,31.9922581 39.0370968,31.693871 C39.5725806,31.4164516 39.7612903,30.9164516 39.6483871,30.2035484 C39.5225806,29.3954839 39.3548387,28.5825806 39.3403226,27.7696774" id="Fill-252"></path>
                    <path d="M4.13241935,18.8620968 C4.47274194,17.041129 5.12919355,15.4185484 6.49209677,14.1314516 C8.82919355,11.925 13.6743548,12.2508065 14.955,16.2604839 C15.2195161,17.091129 15.3614516,17.9604839 15.5727419,18.8620968 L4.13241935,18.8620968 Z M14.8114516,11.4798387 C12.0872581,9.79274194 9.21629032,9.89435484 6.38241935,11.141129 C3.755,12.2991935 2.28080645,14.5008065 1.44854839,17.1717742 C0.777580645,19.325 0.637258065,21.5362903 0.929193548,23.758871 C1.22596774,26.0217742 2.12112903,28.025 3.81306452,29.6120968 C5.49854839,31.1943548 7.55983871,31.9024194 9.81790323,32.0395161 C12.0114516,32.1717742 14.171129,31.941129 16.1791935,30.9620968 C16.6308065,30.741129 17.0469355,30.3862903 17.3840323,30.0072581 C17.6985484,29.6508065 17.6727419,29.1701613 17.4179032,28.7508065 C17.188871,28.3733871 16.7243548,28.2185484 16.2340323,28.3346774 C16.0453226,28.3798387 15.8582258,28.4379032 15.6808065,28.5120968 C14.0017742,29.208871 12.2582258,29.508871 10.4437097,29.3717742 C8.88080645,29.2540323 7.47919355,28.741129 6.31629032,27.6637097 C4.46951613,25.9540323 3.95177419,23.7475806 3.93887097,21.2637097 L4.52435484,21.2637097 C7.24209677,21.2637097 9.95822581,21.2653226 12.6743548,21.2620968 C14.0324194,21.2604839 15.3904839,21.2701613 16.7485484,21.2330645 C17.7033871,21.2072581 18.2017742,20.7717742 18.3808065,19.8379032 C18.5937097,18.7330645 18.421129,17.6330645 18.1775806,16.5572581 C17.7001613,14.4491935 16.688871,12.6427419 14.8114516,11.4798387 L14.8114516,11.4798387 Z" id="Fill-254"></path>
                    <path d="M66.7337097,28.9606452 C66.361129,29.0590323 65.9901613,29.1977419 65.611129,29.2348387 C65.1095161,29.2816129 64.5869355,29.3235484 64.0982258,29.2332258 C62.7804839,28.9880645 62.1756452,28.146129 62.1691935,26.5864516 C62.1546774,22.2283871 62.1579032,17.8703226 62.1546774,13.5106452 C62.1546774,13.4106452 62.1740323,13.3106452 62.1869355,13.1703226 L62.6933871,13.1703226 C64.0514516,13.1703226 65.4095161,13.1751613 66.7675806,13.1687097 C67.6385484,13.1654839 68.0804839,12.7283871 68.0756452,11.8929032 C68.0740323,11.08 67.6353226,10.6477419 66.7869355,10.6445161 C65.4127419,10.6380645 64.0401613,10.6429032 62.6659677,10.6429032 L62.1546774,10.6429032 C62.1546774,9.27032258 62.1579032,7.95903226 62.1514516,6.64935484 C62.1482258,6.3816129 62.1224194,6.11387097 62.0837097,5.84935484 C62.0175806,5.39290323 61.7659677,5.10419355 61.3062903,4.9783871 C60.5014516,4.75580645 59.7643548,5.1816129 59.5820968,6.07516129 C59.4369355,6.78806452 59.3885484,7.52032258 59.3030645,8.24451613 C59.2095161,9.03806452 59.1208065,9.83 59.0256452,10.646129 C58.1191935,10.646129 57.2691935,10.6364516 56.4208065,10.6493548 C55.8224194,10.6574194 55.4256452,10.9541935 55.3095161,11.4929032 C55.1095161,12.4332258 55.5401613,13.2170968 56.5724194,13.1767742 C57.3740323,13.146129 58.1772581,13.1703226 59.0353226,13.1703226 L59.0353226,13.7767742 C59.0353226,18.0912903 59.0320968,22.4041935 59.0385484,26.7187097 C59.0401613,27.1945161 59.0691935,27.6735484 59.128871,28.1445161 C59.3659677,30.0235484 60.4885484,31.2767742 62.328871,31.7090323 C63.5208065,31.9896774 64.7240323,31.9541935 65.9224194,31.7267742 C66.6159677,31.596129 67.2820968,31.3945161 67.8079032,30.8816129 C68.2691935,30.43 68.3820968,29.8767742 68.1143548,29.3816129 C67.8772581,28.9445161 67.3724194,28.7929032 66.7337097,28.9606452" id="Fill-256"></path>
                    <path d="M52.663871,29.2053226 C52.3654839,29.2295161 52.0703226,29.2730645 51.7719355,29.2779032 C50.8509677,29.2908065 50.2235484,28.8424194 50.0074194,27.948871 C49.8848387,27.4472581 49.8154839,26.9198387 49.813871,26.4037097 C49.8025806,18.3924194 49.8058065,10.381129 49.8058065,2.36983871 C49.8058065,2.19080645 49.813871,2.01016129 49.7977419,1.83274194 C49.7493548,1.23758065 49.4493548,0.795645161 48.9106452,0.677903226 C47.7170968,0.415 46.6590323,0.666612903 46.6719355,2.27467742 C46.7058065,6.40693548 46.6832258,10.5391935 46.6832258,14.6714516 C46.6832258,18.4908065 46.6783871,22.3101613 46.6864516,26.1295161 C46.6880645,26.7698387 46.7090323,27.4133871 46.7687097,28.048871 C46.8670968,29.0779032 47.163871,30.0424194 47.9412903,30.7779032 C49.1477419,31.9182258 50.6316129,32.0214516 52.163871,31.8069355 C52.5896774,31.7472581 53.0154839,31.5408065 53.3945161,31.3230645 C53.8816129,31.0424194 54.0687097,30.3843548 53.8880645,29.865 C53.7154839,29.3682258 53.3170968,29.1537097 52.663871,29.2053226" id="Fill-258"></path>
                </g>
            </g>
        </g>
    </g>
</svg>