<?xml version="1.0" encoding="UTF-8"?>
<svg width="300px" height="56px" viewBox="0 0 300 56" version="1.1" xmlns="http://www.w3.org/2000/svg" xmlns:xlink="http://www.w3.org/1999/xlink">
    <!-- Generator: Sketch 55 (78076) - https://sketchapp.com -->
    <title>Horizontal One-Color Black Logo</title>
    <desc>Created with Sketch.</desc>
    <defs>
        <polygon id="path-1" points="0.659903892 0.830418251 27.6647786 0.830418251 27.6647786 43.8123194 0.659903892 43.8123194"></polygon>
        <polygon id="path-3" points="0.161977186 1.12357414 27.1614207 1.12357414 27.1614207 44.1057034 0.161977186 44.1057034"></polygon>
        <polygon id="path-5" points="0.627439797 0.0178908119 18.0923954 0.0178908119 18.0923954 31.3313063 0.627439797 31.3313063"></polygon>
    </defs>
    <g id="Page-1" stroke="none" stroke-width="1" fill="none" fill-rule="evenodd">
        <g id="Logos" transform="translate(-94.000000, -543.000000)">
            <g id="Horizontal-One-Color-Black-Logo" transform="translate(94.000000, 543.000000)">
                <g id="Group-411">
                    <g id="Group-407" transform="translate(19.391635, 0.000000)">
                        <mask id="mask-2" fill="white">
                            <use xlink:href="#path-1"></use>
                        </mask>
                        <g id="Clip-406"></g>
                        <path d="M4.1851711,0.830190114 C2.75361217,4.33209125 0.620532319,10.2237262 0.660456274,14.8971103 C0.66730038,15.6111787 0.720912548,16.2978707 0.836121673,16.9423574 C1.54676806,20.9347529 4.05513308,23.0096578 7.23079848,25.6355133 C9.36844106,27.4047148 11.7912548,29.4088973 13.8627376,32.1910266 C15.7665399,34.7507224 16.3368821,39.7571863 14.508365,43.6857034 C14.4889734,43.7279087 14.4718631,43.7701141 14.4513308,43.8123194 C16.3984791,42.4640304 30.2418251,30.4891255 27.2406844,24.3168821 C24.1072243,17.8731559 5.15361217,2.36326996 4.1851711,0.830190114" id="Fill-405" fill="#0A0B09" mask="url(#mask-2)"></path>
                    </g>
                    <g id="Group-410" transform="translate(0.000000, 11.406844)">
                        <mask id="mask-4" fill="white">
                            <use xlink:href="#path-3"></use>
                        </mask>
                        <g id="Clip-409"></g>
                        <path d="M20.591635,19.3003802 C18.4539924,17.5323194 16.0311787,15.5269962 13.9596958,12.7448669 C12.0558935,10.1863118 11.4855513,5.17870722 13.3140684,1.25019011 C13.3334601,1.20798479 13.3505703,1.16692015 13.3711027,1.12357414 C11.4239544,2.47186312 -2.41939163,14.4467681 0.581749049,20.6201521 C3.71520913,27.0627376 22.6688213,42.5737643 23.6372624,44.1057034 C25.0688213,40.6038023 27.2019011,34.7121673 27.1608365,30.0387833 C27.1551331,29.3247148 27.1015209,28.6380228 26.9863118,27.9935361 C26.2756654,24.0022814 23.7673004,21.9273764 20.591635,19.3003802" id="Fill-408" fill="#0A0B09" mask="url(#mask-4)"></path>
                    </g>
                </g>
                <g id="Group-430" transform="translate(54.752852, 11.406844)" fill="#0A0B09">
                    <path d="M46.7374905,36.9841825 C45.9207605,37.9126996 44.8222814,38.2537643 43.6644867,38.4488213 C43.1374905,38.5377947 42.5990875,38.5480608 42.0663878,38.5936882 C42.0572624,38.6210646 42.0492776,38.6473004 42.0412928,38.6746768 C41.154981,38.5092776 40.2412928,38.4328517 39.3880608,38.1625095 C37.1089734,37.441597 36.8215209,35.3107985 37.8219011,33.6465399 C37.9063118,33.5073764 38.0112548,33.3807605 38.1013688,33.2438783 C38.458403,32.7031939 38.8793156,32.5320913 39.5876806,32.6096578 C41.1070722,32.7761977 42.6492776,32.7396958 44.1789354,32.8229658 C44.7230418,32.8514829 45.2911027,32.9062357 45.7964259,33.0876046 C47.4663878,33.6887452 47.9180989,35.641597 46.7374905,36.9841825 M40.9758935,14.5971103 C42.2238023,14.3244867 43.4454753,14.4465399 44.5177186,15.2290494 C45.6025095,16.0218251 46.0941445,17.6096578 45.7177186,19.058327 C45.3492776,20.4739163 44.4241825,21.2917871 42.9903422,21.5381749 C42.698327,21.588365 42.401749,21.6146008 42.1074525,21.6522433 C40.1808365,21.6214449 38.776654,20.6256274 38.4435741,18.9294297 C38.0454753,16.9024335 38.8507985,15.0625095 40.9758935,14.5971103 M49.9177186,29.7054753 C48.7496578,29.1214449 47.4937643,28.8693536 46.2127757,28.7997719 C44.6352091,28.7142205 43.0507985,28.7564259 41.4720913,28.6822814 C40.7819772,28.6492015 40.0793156,28.531711 39.4165779,28.3343726 C38.6192395,28.0971103 38.2336882,27.4161217 38.4287452,26.6222053 C38.5268441,26.2229658 38.7949049,25.849962 39.0504183,25.5134601 C39.1507985,25.38 39.4405323,25.2955894 39.6173384,25.3286692 C42.2603042,25.8271483 44.8097338,25.5727757 47.2393916,24.3944487 C50.8736122,22.6320913 52.0131559,18.4674525 50.8154373,15.3841825 C50.4743726,14.5035741 49.8526996,13.7324715 49.3291255,12.8609886 C49.3450951,12.8473004 49.4591635,12.7503422 49.5663878,12.6476806 C50.3511787,11.8936882 51.1565019,11.1590875 51.915057,10.3777186 C52.6496578,9.62030418 52.6587833,8.65414449 52.0108745,7.82942966 C51.2968061,6.92258555 49.6701901,6.37391635 48.5260837,7.73703422 C47.6625856,8.76479087 46.811635,9.80395437 45.9435741,10.8260076 C45.8625856,10.9206844 45.6686692,11.0062357 45.5591635,10.9765779 C44.0739924,10.5727757 42.5671483,10.4735361 41.0386312,10.6058555 C39.0139163,10.7792395 37.124943,11.3096578 35.5006084,12.606616 C32.4355894,15.0545247 31.876654,20.2685932 34.8743726,23.0769582 C35.0876806,23.2765779 35.2496578,23.5309506 35.4298859,23.753384 C32.7675285,25.9355133 32.7572624,28.9936882 34.8264639,30.9876046 C34.685019,31.0742966 34.5675285,31.1381749 34.4580228,31.2146008 C32.3956654,32.641597 31.2686692,34.5476806 31.6142966,37.1085171 C31.9165779,39.3556654 33.3663878,40.7187833 35.3625856,41.5720152 C37.2606844,42.3841825 39.2705703,42.5712548 41.3101141,42.5860837 C44.0295057,42.606616 46.6644867,42.2187833 49.0690494,40.8704943 C51.4063118,39.5587072 52.8526996,37.6298099 52.9257034,34.8568061 C52.9884411,32.5263878 52.0450951,30.7697338 49.9177186,29.7054753" id="Fill-412"></path>
                    <path d="M125.729658,11.1029658 C124.009506,10.1881369 122.390875,10.7835741 121.769202,12.6006844 C121.071103,14.6390875 120.403802,16.6888973 119.749049,18.7409886 C118.930038,21.3029658 118.134981,23.8717871 117.337643,26.4406084 C117.221293,26.8158935 117.146008,27.2048669 117.052471,27.5869962 C117.025095,27.5847148 116.998859,27.5812928 116.971483,27.5778707 C116.822053,26.9812928 116.710266,26.3710266 116.518631,25.7881369 C115.058555,21.3565779 113.590494,16.9284411 112.106464,12.5048669 C111.631939,11.0881369 110.741065,10.5725475 109.254753,10.77673 C107.973764,10.9546768 106.89924,11.8444106 106.679087,12.9337643 C106.529658,13.6695057 106.796578,14.3436502 107.041825,15.0155133 C109.230798,21.020076 111.424335,27.0234981 113.60076,33.0314829 C113.670342,33.2231179 113.656654,33.5139924 113.556274,33.6862357 C113.095437,34.4824335 112.639163,35.290038 112.089354,36.0257795 C111.312548,37.0638023 110.268821,37.7664639 108.95019,37.8748289 C108.168821,37.9387072 107.374905,37.8314829 106.585551,37.798403 C105.568061,37.7561977 104.824335,38.2101901 104.593916,39.0349049 C104.380608,39.7991635 104.512928,40.5143726 104.974905,41.1565779 C105.618251,42.0565779 106.604943,42.2961217 107.606464,42.3714068 C111.043346,42.6326236 113.913308,41.4520152 116.193536,38.8546768 C117.864639,36.9531559 119.113688,34.7835741 120.05019,32.4577186 C121.461217,28.9569582 122.761597,25.411711 124.089354,21.8778707 C125.04981,19.3170342 125.997719,16.751635 126.913688,14.1748289 C127.411027,12.7797719 126.990114,11.7725475 125.729658,11.1029658" id="Fill-414"></path>
                    <path d="M75.901711,16.6888973 C75.468251,14.4360456 74.3595057,12.6143726 72.2846008,11.481673 C71.0207224,10.7915589 69.6439163,10.5520152 68.2351711,10.5451711 C66.5709125,10.5360456 64.9534221,10.8257795 63.5811787,11.8421293 C62.8351711,12.3942205 62.1769962,13.064943 61.4595057,13.6991635 C61.4480989,13.6284411 61.4275665,13.5006844 61.4104563,13.3729278 C61.1446768,11.4862357 60.6564639,10.8976426 59.0275665,10.7470722 C57.6576046,10.621597 56.5728137,11.221597 56.4621673,12.7580989 C56.4439163,13.0101901 56.4256654,13.2634221 56.4245247,13.516654 C56.423384,18.186616 56.423384,22.8565779 56.423384,27.5265399 C56.423384,28.2577186 56.4142586,28.9888973 56.4268061,29.720076 C56.4404943,30.5972624 56.5865019,31.4504943 57.4077947,31.9455513 C58.4720532,32.586616 59.6298479,32.5968821 60.7636882,32.1668441 C61.7446768,31.7938403 62.1279468,30.9691255 62.1302281,29.9630418 C62.1382129,26.1725475 62.1336502,22.3831939 62.1382129,18.5926996 C62.1382129,18.4181749 62.123384,18.2128517 62.2055133,18.0736882 C63.1032319,16.5303422 64.2918251,15.320076 66.1648289,15.125019 C68.2750951,14.9060076 69.6359316,15.7489734 70.1663498,17.7075285 C70.3739544,18.4729278 70.4412548,19.2953612 70.4480989,20.0938403 C70.4777567,23.3755894 70.4572243,26.6584791 70.4640684,29.9402281 C70.4674905,31.1128517 70.9887833,31.8907985 72.0222433,32.2364259 C72.3838403,32.3573384 72.7819392,32.420076 73.1629278,32.4234981 C74.1039924,32.4314829 75.0176806,32.3128517 75.66673,31.5075285 C76.1161597,30.9485932 76.1697719,30.2778707 76.1720532,29.6025856 C76.1777567,26.2455513 76.1925856,22.8885171 76.1617871,19.5314829 C76.1538023,18.5824335 76.0807985,17.6196958 75.901711,16.6888973" id="Fill-416"></path>
                    <path d="M105.286654,13.8545247 C105.368783,13.466692 105.401863,13.0537643 105.369924,12.6590875 C105.287795,11.6085171 104.604525,10.9857034 103.549392,10.9594677 C102.952814,10.9446388 102.355095,10.9537643 101.758517,10.9537643 C101.408327,10.9526236 101.058137,10.9537643 100.599582,10.9537643 C100.68057,9.67277567 100.668023,8.45908745 100.855095,7.27619772 C101.078669,5.87201521 102.056236,5.19102662 103.482091,5.30851711 C104.038745,5.35528517 104.586274,5.5218251 105.137224,5.6381749 C106.040646,5.82980989 106.67943,5.52296578 107.036464,4.71878327 C107.428859,3.83361217 107.231521,2.57429658 106.499202,1.95946768 C106.102243,1.62638783 105.592357,1.38228137 105.093878,1.22144487 C103.939506,0.849581749 102.740646,0.871254753 101.550913,1.03209125 C99.5068061,1.30813688 97.7638403,2.1408365 96.5136502,3.8461597 C95.5121293,5.2138403 95.0820913,6.77429658 95.0056654,8.4408365 C94.9680228,9.25642586 94.999962,10.0742966 94.999962,10.9606084 C94.338365,10.9606084 93.7680228,10.9195437 93.2079468,10.9765779 C92.8543346,11.0119392 92.4744867,11.1328517 92.1790494,11.3267681 C91.4912167,11.7796198 91.2528137,12.9339924 91.5722053,13.9423574 C91.8368441,14.7739163 92.4071863,15.1720152 93.3665019,15.1811407 C93.8957795,15.1868441 94.425057,15.1822814 94.981711,15.1822814 L94.981711,15.7971103 C94.981711,20.3484411 94.9805703,24.8997719 94.9828517,29.4511027 C94.9828517,29.7191635 94.9771483,29.9895057 95.0022433,30.2564259 C95.0820913,31.0993916 95.4448289,31.7552852 96.2535741,32.1157414 C97.1843726,32.5309506 98.1436882,32.5218251 99.0927376,32.2446388 C99.9106084,32.0050951 100.438745,31.4290494 100.600722,30.5792395 C100.668023,30.2324715 100.664601,29.8674525 100.664601,29.5104183 C100.669163,24.9305703 100.668023,20.3495817 100.669163,15.7685932 C100.669163,15.5815209 100.685133,15.3944487 100.694259,15.1777186 C101.719734,15.1777186 102.688175,15.1879848 103.657757,15.1742966 C104.487034,15.1628897 105.114411,14.666692 105.286654,13.8545247" id="Fill-418"></path>
                    <path d="M13.4260837,20.3760456 C12.3093536,19.8946768 11.1390114,19.5387833 9.998327,19.1098859 C9.0834981,18.7653992 8.16524715,18.4220532 7.27209125,18.0250951 C6.83634981,17.8311787 6.48501901,17.4878327 6.33901141,16.9939163 C6.0834981,16.1247148 6.49072243,15.3695817 7.45117871,14.9908745 C8.49604563,14.5790875 9.58653992,14.5711027 10.6644867,14.7775665 C11.6112548,14.9589354 12.5374905,15.2418251 13.4739924,15.4768061 C14.5758935,15.7528517 15.5671483,15.234981 15.8135361,14.2574144 C16.0690494,13.243346 15.6755133,12.1904943 14.7663878,11.6680608 C14.2565019,11.3749049 13.7009886,11.1273764 13.1340684,10.9768061 C11.2222814,10.4680608 9.27513308,10.4087452 7.32456274,10.7087452 C5.52912548,10.9859316 3.88311787,11.5996198 2.50403042,12.8520913 C0.240912548,14.9076046 -0.388745247,19.9095057 3.48045627,21.9946768 C4.77855513,22.6939163 6.21923954,23.1273764 7.59718631,23.678327 C8.5051711,24.0410646 9.4348289,24.3581749 10.3211407,24.7688213 C10.7922433,24.9878327 11.1618251,25.3847909 11.2747529,25.9437262 C11.4869202,26.9977186 10.9462357,27.8589354 9.83292776,28.2307985 C8.58045627,28.648289 7.29718631,28.6072243 6.0321673,28.3711027 C5.01353612,28.1806084 4.02456274,27.8338403 3.01619772,27.5806084 C2.02722433,27.3319392 1.14091255,27.7870722 0.847756654,28.6631179 C0.530646388,29.6087452 0.816958175,30.6730038 1.61543726,31.2730038 C2.00212928,31.565019 2.44129278,31.8136882 2.8930038,31.9882129 C4.30174905,32.5334601 5.7834981,32.6692015 6.64129278,32.6749049 C9.29110266,32.6589354 11.259924,32.4228137 13.1078327,31.5536122 C16.0222814,30.1825095 17.5006084,27.1665399 16.7203802,24.0764259 C16.2686692,22.2889734 15.0823574,21.0889734 13.4260837,20.3760456" id="Fill-420"></path>
                    <path d="M27.4576426,13.5253232 C27.4542205,12.0846388 26.8838783,11.1914829 25.7409125,10.938251 C25.1968061,10.8173384 24.611635,10.771711 24.058403,10.8287452 C22.4648669,10.9930038 21.7496578,11.8325475 21.7462357,13.4386312 C21.7428137,14.7960456 21.7450951,16.1534601 21.7450951,17.5108745 C21.7450951,21.6435741 21.7428137,25.7762738 21.7485171,29.9089734 C21.7496578,31.0987072 22.2424335,31.858403 23.2793156,32.2211407 C23.6523194,32.3523194 24.0652471,32.4207605 24.4610646,32.4230418 C25.3838783,32.4298859 26.2827376,32.3158175 26.9306464,31.533308 C27.3892015,30.9789354 27.4542205,30.311635 27.4565019,29.6363498 C27.4644867,26.9660076 27.459924,24.2956654 27.459924,21.6253232 C27.459924,18.9253232 27.4656274,16.2253232 27.4576426,13.5253232" id="Fill-422"></path>
                    <path d="M87.8426236,21.6136882 L87.8323574,21.6136882 C87.8323574,18.7642586 87.8414829,15.9148289 87.8277947,13.0665399 C87.8232319,12.0935361 87.2437643,11.2756654 86.3494677,10.9870722 C85.448327,10.6973384 84.5175285,10.6790875 83.6232319,11.0007605 C82.7677186,11.3076046 82.2806464,11.9555133 82.1893916,12.8737643 C82.1597338,13.1851711 82.1437643,13.4988593 82.1437643,13.8114068 C82.1414829,18.9285171 82.1414829,24.0444867 82.1437643,29.161597 C82.1437643,29.548289 82.1620152,29.9361217 82.1893916,30.3228137 C82.2521293,31.2376426 82.8213308,31.9551331 83.6962357,32.2231939 C84.4194297,32.4444867 85.1620152,32.4912548 85.9023194,32.3441065 C86.9141065,32.1410646 87.5928137,31.5593156 87.7935741,30.5155894 C87.8494677,30.2258555 87.8403422,29.9212928 87.8403422,29.6247148 C87.8437643,26.9543726 87.8426236,24.2840304 87.8426236,21.6136882" id="Fill-424"></path>
                    <path d="M85.0263878,1.38935361 C84.8929278,1.38935361 84.758327,1.38136882 84.6248669,1.3904943 C82.1826616,1.55931559 80.7579468,4.2513308 82.0651711,6.28288973 C82.89673,7.57414449 84.1457795,7.94828897 85.636654,7.75551331 C87.5130798,7.51368821 88.8271483,5.5756654 88.3024335,3.75627376 C87.8723954,2.26653992 86.6404563,1.37110266 85.0263878,1.38935361" id="Fill-426"></path>
                    <path d="M24.7242205,1.37794677 C22.6744106,1.34030418 21.2234601,2.65551331 21.1926616,4.57756654 C21.1641445,6.39011407 22.5763118,7.77604563 24.5029278,7.82623574 C26.4477947,7.87642586 27.9877186,6.46425856 28.0105323,4.60722433 C28.033346,2.81863118 26.6017871,1.4121673 24.7242205,1.37794677" id="Fill-428"></path>
                </g>
                <g id="Group-436" transform="translate(187.072243, 12.547529)">
                    <path d="M17.5374525,18.6467681 C17.531749,17.7262357 17.4712928,16.7954373 17.3161597,15.8897338 C16.7857414,12.7711027 14.9218631,10.4692015 11.6104563,9.89657795 C9.35304183,9.50646388 7.16863118,9.71292776 5.22604563,11.0441065 C4.47205323,11.5608365 3.81273764,12.213308 3.10893536,12.8064639 C3.13060837,12.3695817 3.171673,11.8813688 3.17509506,11.3942966 C3.18536122,9.61825095 3.18422053,7.84220532 3.18536122,6.0661597 C3.1865019,4.52965779 3.18992395,2.99201521 3.18193916,1.45551331 C3.17737643,0.581749049 2.75646388,0.141444867 1.88155894,0.0798479087 C1.67509506,0.0661596958 1.46406844,0.0707224335 1.25760456,0.0912547529 C0.593726236,0.158555133 0.197908745,0.542965779 0.118060837,1.20114068 C0.0929657795,1.40760456 0.0895437262,1.61749049 0.0895437262,1.82623574 C0.0884030418,11.0486692 0.0884030418,20.2711027 0.0906844106,29.4935361 C0.0906844106,29.7467681 0.102091255,30.0022814 0.138593156,30.2520913 C0.196768061,30.6661597 0.428326996,30.9581749 0.816159696,31.1281369 C2.11653992,31.7007605 3.18422053,31.0231939 3.18422053,29.6212928 C3.1865019,25.2787072 3.18422053,20.9361217 3.19106464,16.5923954 C3.19106464,16.3790875 3.21958175,16.1315589 3.32794677,15.9581749 C4.78802281,13.6209125 6.78992395,12.2053232 9.66102662,12.3684411 C11.3538023,12.4642586 12.7351711,13.1520913 13.5872624,14.6897338 C14.0652091,15.5498099 14.3173004,16.4863118 14.3663498,17.4604563 C14.4302281,18.6958175 14.4484791,19.9346008 14.4530418,21.1722433 C14.4644487,24.0821293 14.4541825,26.9920152 14.4610266,29.9019011 C14.4621673,30.5851711 14.7427757,30.9878327 15.3051331,31.1760456 C16.0180608,31.4144487 16.9294677,31.2558935 17.2591255,30.8041825 C17.3857414,30.6307985 17.4587452,30.4060837 17.5055133,30.1939163 C17.5522814,29.978327 17.5454373,29.7490494 17.5465779,29.5254753 C17.5488593,25.8992395 17.5614068,22.2730038 17.5374525,18.6467681" id="Fill-431" fill="#0A0B09"></path>
                    <g id="Group-435" transform="translate(94.676806, 0.000000)">
                        <mask id="mask-6" fill="white">
                            <use xlink:href="#path-5"></use>
                        </mask>
                        <g id="Clip-434"></g>
                        <path d="M18.0769962,18.7606084 C18.0690114,17.7659316 18.0005703,16.7587072 17.8260456,15.7822814 C17.4439163,13.658327 16.5131179,11.7898859 14.5306084,10.7735361 C11.5522814,9.2461597 8.53745247,9.26669202 5.66292776,11.1111787 C4.92604563,11.5845627 4.30779468,12.2461597 3.63479087,12.8210646 C3.65418251,12.4332319 3.6918251,12.0168821 3.69296578,11.6005323 C3.70209125,8.27315589 3.70551331,4.94463878 3.71007605,1.61726236 C3.71007605,1.4826616 3.71007605,1.34806084 3.69752852,1.21460076 C3.64505703,0.649961977 3.32908745,0.274676806 2.79068441,0.125247148 C1.45038023,-0.248897338 0.629087452,0.369353612 0.627946768,1.75414449 C0.626806084,1.78380228 0.627946768,1.81346008 0.627946768,1.84311787 C0.627946768,11.0507224 0.626806084,20.258327 0.627946768,29.4659316 C0.627946768,29.6906464 0.629087452,29.9153612 0.648479087,30.1377947 C0.698669202,30.6659316 0.975855513,31.0138403 1.48688213,31.1792395 C2.82490494,31.6161217 3.70893536,30.9921673 3.71007605,29.601673 C3.71007605,25.5876046 3.76596958,21.5723954 3.67813688,17.5594677 C3.64961977,16.2830418 4.10019011,15.3545247 4.93174905,14.5115589 C5.1918251,14.2469202 5.46901141,13.9936882 5.75874525,13.7609886 C7.45038023,12.4069962 9.37357414,12.0054753 11.4359316,12.5826616 C13.6043726,13.188365 14.6218631,14.8469202 14.8796578,17.3507224 C14.980038,18.3111787 14.9709125,19.2853232 14.9743346,20.2549049 C14.9857414,23.4476806 14.9811787,26.641597 14.9777567,29.8355133 C14.9777567,30.4195437 15.1568441,30.8997719 15.7237643,31.1404563 C17.03327,31.6936882 18.0804183,31.0035741 18.088403,29.5948289 L18.088403,29.4157414 C18.088403,25.8636502 18.1055133,22.3126996 18.0769962,18.7606084" id="Fill-433" fill="#0A0B09" mask="url(#mask-6)"></path>
                    </g>
                </g>
                <g id="Group-445" transform="translate(209.885932, 12.547529)" fill="#0A0B09">
                    <path d="M35.9389734,25.690038 C35.936692,25.8257795 35.8659696,25.9831939 35.7781369,26.0892776 C34.6306084,27.4797719 33.254943,28.5326236 31.4446768,28.881673 C30.2036122,29.1223574 28.9865019,29.0185551 27.8412548,28.4242586 C26.5180608,27.7387072 25.823384,26.1965019 26.1986692,24.8105703 C26.4074144,24.0451711 26.9093156,23.4987833 27.6096958,23.2409886 C28.4230038,22.9421293 29.2842205,22.6911787 30.1431559,22.6090494 C32.076616,22.4242586 34.006654,22.5520152 35.9469582,23.0630418 C35.9469582,23.9641825 35.9538023,24.8276806 35.9389734,25.690038 M39.1226236,27.2390875 C39.0644487,24.0622814 39.063308,20.8843346 39.0290875,17.7063878 C39.0211027,16.9478327 38.9994297,16.1858555 38.9298479,15.4307224 C38.6811787,12.7843346 36.9211027,10.7619011 34.3351711,10.129962 C31.4446768,9.42387833 28.6237643,9.76038023 25.8712928,10.7790114 C25.3123574,10.9854753 24.7887833,11.3436502 24.323384,11.7212167 C23.9036122,12.0622814 23.8865019,12.7387072 24.1625475,13.2052471 C24.4146388,13.6318631 24.9382129,13.8086692 25.501711,13.64327 C25.7138783,13.5805323 25.9237643,13.5006844 26.1279468,13.4094297 C28.111597,12.5231179 30.1785171,12.2561977 32.3252852,12.5425095 C34.1492395,12.786616 35.3138783,13.8303422 35.7108365,15.6223574 C36.0701521,17.2421293 35.9344106,18.8858555 35.9230038,20.5227376 C35.9230038,20.5444106 35.889924,20.5660837 35.8614068,20.5991635 C35.2237643,20.5010646 34.5826996,20.3790114 33.9359316,20.3037262 C31.7446768,20.0504943 29.5579848,20.0539163 27.4089354,20.6162738 C25.9271863,21.0041065 24.5674905,21.6314829 23.6811787,22.9695057 C22.0192015,25.4778707 22.9830798,29.203346 25.7412548,30.5824335 C28.7891635,32.1063878 31.7880228,31.8736882 34.6214829,29.9619011 C35.1701521,29.5923194 35.6458175,29.1132319 36.1796578,28.6638023 C36.2058935,28.7676046 36.2298479,28.8622814 36.2526616,28.9569582 C36.4214829,29.6504943 36.5526616,30.3622814 37.089924,30.894981 C37.5587452,31.3592395 38.2420152,31.4607605 38.8192015,31.1630418 C39.3553232,30.8869962 39.5423954,30.3862357 39.4306084,29.673308 C39.3051331,28.8645627 39.1374525,28.0523954 39.1226236,27.2390875" id="Fill-437"></path>
                    <path d="M3.91790875,18.3331939 C4.25897338,16.5126616 4.91486692,14.8906084 6.27684411,13.6039163 C8.61410646,11.396692 13.4585932,11.7217871 14.7384411,15.7324335 C15.0030798,16.5628517 15.1468061,17.4320532 15.356692,18.3331939 L3.91790875,18.3331939 Z M14.5969962,10.9529658 C11.8719011,9.26475285 9.00079848,9.36627376 6.16847909,10.6130418 C3.53920152,11.7708365 2.06657795,13.9712167 1.23387833,16.6426996 C0.563155894,18.7963118 0.422851711,21.0069582 0.713726236,23.2301521 C1.01144487,25.4921293 1.90688213,27.4951711 3.59851711,29.0830038 C5.28330798,30.6639924 7.3456654,31.3734981 9.60307985,31.5092395 C11.7954753,31.6415589 13.9559316,31.41 15.9635361,30.4312928 C16.4152471,30.2111407 16.831597,29.8563878 17.1680989,29.4765399 C17.4817871,29.1206464 17.456692,28.6404183 17.2023194,28.2206464 C16.9741825,27.8442205 16.509924,27.6890875 16.018289,27.8054373 C15.830076,27.849924 15.6430038,27.9080989 15.465057,27.9822433 C13.7859696,28.6792015 12.0430038,28.9792015 10.2281749,28.8423194 C8.66657795,28.7236882 7.26467681,28.2115209 6.10117871,27.1347148 C4.25441065,25.4248289 3.73653992,23.2176046 3.7239924,20.7343346 L4.31030418,20.7343346 C7.02627376,20.7343346 9.74338403,20.736616 12.4593536,20.7331939 C13.8167681,20.7320532 15.1753232,20.7411787 16.5327376,20.7046768 C17.4874905,20.6784411 17.9859696,20.2426996 18.165057,19.3084791 C18.378365,18.2031559 18.204981,17.1035361 17.9620152,16.0290114 C17.4852091,13.9198859 16.4734221,12.1141825 14.5969962,10.9529658 L14.5969962,10.9529658 Z" id="Fill-439"></path>
                    <path d="M66.513308,28.4307605 C66.1403042,28.5288593 65.7707224,28.6680228 65.3908745,28.7045247 C64.8901141,28.7524335 64.3665399,28.7934981 63.878327,28.7022433 C62.5608365,28.4581369 61.9551331,27.6163118 61.9494297,26.0569962 C61.9346008,21.6984411 61.9368821,17.3410266 61.9346008,12.9824715 C61.9346008,12.8832319 61.9539924,12.7828517 61.9665399,12.6425475 L62.4730038,12.6425475 C63.8304183,12.6425475 65.1889734,12.6459696 66.5475285,12.6402662 C67.4190114,12.6368441 67.8593156,12.1988213 67.8558935,11.3638403 C67.8536122,10.551673 67.4155894,10.1204943 66.5657795,10.1159316 C65.1923954,10.1102281 63.8201521,10.1147909 62.4467681,10.1147909 L61.9346008,10.1147909 C61.9346008,8.74254753 61.9368821,7.43190114 61.9311787,6.12125475 C61.9288973,5.8543346 61.9015209,5.58627376 61.8638783,5.32163498 C61.7977186,4.86536122 61.5456274,4.57676806 61.0870722,4.45015209 C60.281749,4.22885932 59.5437262,4.6543346 59.3623574,5.54634981 C59.2163498,6.25927757 59.1695817,6.99273764 59.0828897,7.71707224 C58.9893536,8.50984791 58.9003802,9.30262357 58.8068441,10.1170722 C57.9,10.1170722 57.0501901,10.1090875 56.2003802,10.1204943 C55.6038023,10.1296198 55.2068441,10.425057 55.0904943,10.9646008 C54.8897338,11.9045247 55.3209125,12.6881749 56.3532319,12.648251 C57.1539924,12.6174525 57.9581749,12.6425475 58.8148289,12.6425475 L58.8148289,13.2493916 C58.8148289,17.5623194 58.8125475,21.8752471 58.8193916,26.1893156 C58.8205323,26.6638403 58.8490494,27.1429278 58.9095057,27.6151711 C59.1467681,29.4927376 60.2680608,30.7463498 62.1079848,31.1798099 C63.3,31.4604183 64.5045627,31.425057 65.7022814,31.1969202 C66.3946768,31.0657414 67.0619772,30.8638403 67.586692,30.3505323 C68.0486692,29.899962 68.161597,29.34673 67.8935361,28.851673 C67.6562738,28.4147909 67.1520913,28.2630798 66.513308,28.4307605" id="Fill-441"></path>
                    <path d="M52.4447909,28.6754373 C52.1470722,28.6993916 51.8504943,28.7438783 51.5527757,28.7473004 C50.6322433,28.7609886 50.0048669,28.3126996 49.7881369,27.4195437 C49.6660837,26.9176426 49.5965019,26.3906464 49.5953612,25.8739163 C49.5839544,17.8640304 49.5862357,9.8530038 49.5862357,1.84197719 C49.5862357,1.66288973 49.5942205,1.4826616 49.5793916,1.30471483 C49.5314829,0.710418251 49.2303422,0.268973384 48.6919392,0.150342205 C47.4987833,-0.113155894 46.4402281,0.138935361 46.4527757,1.74730038 C46.4869962,5.87885932 46.4641825,10.0115589 46.4641825,14.1431179 C46.4641825,17.9621293 46.4607605,21.7811407 46.4676046,25.6001521 C46.4698859,26.240076 46.4904183,26.8834221 46.5508745,27.519924 C46.6489734,28.5488213 46.9455513,29.5115589 47.7223574,30.2473004 C48.9292015,31.3879848 50.4132319,31.4917871 51.9451711,31.2761977 C52.3706464,31.2168821 52.7961217,31.0104183 53.1759696,30.7925475 C53.6619011,30.5130798 53.8489734,29.8537643 53.6687452,29.3347529 C53.4965019,28.8385551 53.098403,28.6241065 52.4447909,28.6754373" id="Fill-443"></path>
                </g>
            </g>
        </g>
    </g>
</svg>