<?xml version="1.0" encoding="UTF-8"?>
<svg width="300px" height="55px" viewBox="0 0 300 55" version="1.1" xmlns="http://www.w3.org/2000/svg" xmlns:xlink="http://www.w3.org/1999/xlink">
    <!-- Generator: Sketch 55 (78076) - https://sketchapp.com -->
    <title>Horizontal Color Logo</title>
    <desc>Created with Sketch.</desc>
    <defs>
        <polygon id="path-1" points="0.685242851 1.16129032 27.6922357 1.16129032 27.6922357 44.1483871 0.685242851 44.1483871"></polygon>
        <polygon id="path-3" points="0.148387097 1.57177419 27.1508858 1.57177419 27.1508858 44.558871 0.148387097 44.558871"></polygon>
        <polygon id="path-5" points="0.131379928 1.60709205 17.5967742 1.60709205 17.5967742 32.9230845 0.131379928 32.9230845"></polygon>
    </defs>
    <g id="Page-1" stroke="none" stroke-width="1" fill="none" fill-rule="evenodd">
        <g id="Logos" transform="translate(-94.000000, -910.000000)">
            <g id="Horizontal-Color-Logo" transform="translate(94.000000, 909.000000)">
                <g id="Group-186">
                    <g id="Group-182" transform="translate(19.354839, 0.000000)">
                        <mask id="mask-2" fill="white">
                            <use xlink:href="#path-1"></use>
                        </mask>
                        <g id="Clip-181"></g>
                        <path d="M4.21,1.16129032 C2.77774194,4.66451613 0.645483871,10.5548387 0.685806452,15.2290323 C0.692258065,15.9435484 0.745483871,16.6306452 0.86,17.2741935 C1.57129032,21.2677419 4.07935484,23.3419355 7.25516129,25.9693548 C9.39387097,27.7387097 11.8164516,29.7435484 13.8874194,32.5258065 C15.7922581,35.083871 16.3632258,40.0919355 14.5341935,44.0209677 C14.5148387,44.0629032 14.4970968,44.1048387 14.4777419,44.1483871 C16.4245161,42.7983871 30.2696774,30.8225806 27.2680645,24.65 C24.1341935,18.2064516 5.17935484,2.69354839 4.21,1.16129032" id="Fill-180" fill="#4C7E82" mask="url(#mask-2)"></path>
                    </g>
                    <g id="Group-185" transform="translate(0.000000, 11.290323)">
                        <mask id="mask-4" fill="white">
                            <use xlink:href="#path-3"></use>
                        </mask>
                        <g id="Clip-184"></g>
                        <path d="M20.5793548,19.7508065 C18.4406452,17.9814516 16.0180645,15.9782258 13.9470968,13.1943548 C12.0422581,10.6362903 11.4729032,5.62822581 13.3003226,1.69919355 C13.3212903,1.65725806 13.3374194,1.61532258 13.3583871,1.57177419 C11.41,2.92177419 -2.43354839,14.8975806 0.568064516,21.0701613 C3.70193548,27.5137097 22.6567742,43.0266129 23.6245161,44.558871 C25.0567742,41.0572581 27.1906452,35.1653226 27.1503226,30.491129 C27.143871,29.7766129 27.0890323,29.0895161 26.9745161,28.4459677 C26.2632258,24.4524194 23.7551613,22.3782258 20.5793548,19.7508065" id="Fill-183" fill="#4C7E82" mask="url(#mask-4)"></path>
                    </g>
                </g>
                <g id="Group-205" transform="translate(54.838710, 11.290323)" fill="#13323D">
                    <path d="M46.6469355,37.436129 C45.8308065,38.3651613 44.7308065,38.7054839 43.5727419,38.9006452 C43.0469355,38.9893548 42.5082258,39.0006452 41.9743548,39.0458065 C41.9662903,39.0732258 41.9582258,39.1006452 41.9501613,39.1264516 C41.0630645,38.9619355 40.1501613,38.8845161 39.2969355,38.6151613 C37.0179032,37.8941935 36.7308065,35.7619355 37.7308065,34.0990323 C37.8146774,33.9587097 37.9195161,33.8312903 38.0098387,33.6958065 C38.3679032,33.1554839 38.7872581,32.9829032 39.4969355,33.0619355 C41.0162903,33.2280645 42.5582258,33.1909677 44.088871,33.2732258 C44.6324194,33.303871 45.2001613,33.3570968 45.7066129,33.5393548 C47.3759677,34.1409677 47.8275806,36.0941935 46.6469355,37.436129 M40.8856452,15.0474194 C42.1324194,14.7748387 43.355,14.8958065 44.4275806,15.6796774 C45.5130645,16.4716129 46.0033871,18.0587097 45.6259677,19.5087097 C45.2582258,20.9248387 44.3340323,21.7425806 42.8985484,21.9877419 C42.6066129,22.0393548 42.3114516,22.0651613 42.0162903,22.1022581 C40.0904839,22.0716129 38.6856452,21.0764516 38.3517742,19.3796774 C37.955,17.3522581 38.7598387,15.5119355 40.8856452,15.0474194 M49.8275806,30.1570968 C48.6598387,29.5716129 47.4033871,29.32 46.1227419,29.2506452 C44.5437097,29.1651613 42.9598387,29.2070968 41.3808065,29.1329032 C40.6904839,29.1006452 39.9872581,28.9829032 39.3259677,28.786129 C38.5275806,28.5490323 38.1420968,27.8667742 38.3372581,27.0732258 C38.4356452,26.6732258 38.7033871,26.3006452 38.9582258,25.9635484 C39.0598387,25.8312903 39.3485484,25.7458065 39.5259677,25.7796774 C42.1695161,26.2780645 44.7195161,26.0232258 47.1485484,24.8458065 C50.7840323,23.0829032 51.9227419,18.9183871 50.7259677,15.8345161 C50.3840323,14.953871 49.7630645,14.1829032 49.238871,13.3103226 C49.255,13.2958065 49.3679032,13.2006452 49.4759677,13.0974194 C50.2614516,12.3425806 51.0662903,11.6087097 51.8243548,10.8264516 C52.5598387,10.07 52.5695161,9.10225806 51.921129,8.27806452 C51.2066129,7.3716129 49.5808065,6.82322581 48.4356452,8.18612903 C47.5727419,9.21354839 46.721129,10.2522581 45.8517742,11.2748387 C45.7727419,11.37 45.5775806,11.4554839 45.4679032,11.4248387 C43.9824194,11.0216129 42.4759677,10.9232258 40.9485484,11.0554839 C38.9227419,11.2280645 37.0324194,11.7587097 35.4082258,13.0554839 C32.3437097,15.503871 31.7840323,20.7183871 34.7824194,23.5264516 C34.9953226,23.7264516 35.1582258,23.9812903 35.338871,24.203871 C32.6759677,26.386129 32.6662903,29.4458065 34.7340323,31.4393548 C34.5937097,31.5264516 34.4759677,31.5893548 34.3662903,31.6651613 C32.3033871,33.0925806 31.1775806,34.9990323 31.5227419,37.5603226 C31.8243548,39.8070968 33.2743548,41.17 35.271129,42.0248387 C37.1695161,42.8377419 39.1791935,43.0248387 41.2179032,43.0393548 C43.938871,43.0587097 46.5743548,42.6716129 48.9791935,41.3232258 C51.3162903,40.0119355 52.7614516,38.0812903 52.8356452,35.3087097 C52.8985484,32.9780645 51.955,31.22 49.8275806,30.1570968" id="Fill-187"></path>
                    <path d="M125.646613,11.5525806 C123.927258,10.6380645 122.307903,11.2332258 121.685323,13.0493548 C120.986935,15.0880645 120.320806,17.1380645 119.664355,19.1912903 C118.846613,21.7541935 118.051452,24.3235484 117.253065,26.8912903 C117.136935,27.2670968 117.062742,27.6558065 116.969194,28.0380645 C116.941774,28.0348387 116.914355,28.0316129 116.886935,28.03 C116.738548,27.4316129 116.627258,26.8219355 116.435323,26.2396774 C114.974032,21.8074194 113.50629,17.3783871 112.022419,12.9541935 C111.546613,11.5380645 110.65629,11.0219355 109.170806,11.2267742 C107.890161,11.4041935 106.814355,12.2945161 106.595,13.3832258 C106.445,14.1203226 106.711129,14.7929032 106.957903,15.4654839 C109.146613,21.4703226 111.340161,27.4735484 113.515968,33.4832258 C113.585323,33.6751613 113.572419,33.9654839 113.472419,34.1380645 C113.011129,34.9348387 112.554677,35.7429032 112.004677,36.4767742 C111.228871,37.5154839 110.18371,38.2187097 108.864355,38.3267742 C108.08371,38.3912903 107.290161,38.2832258 106.501452,38.2509677 C105.48371,38.2074194 104.738548,38.6622581 104.509516,39.4864516 C104.295,40.2509677 104.428871,40.9670968 104.890161,41.6090323 C105.53371,42.5090323 106.520806,42.7493548 107.520806,42.8251613 C110.959516,43.0848387 113.828871,41.9041935 116.109516,39.3074194 C117.780484,37.4058065 119.028871,35.2348387 119.967581,32.9090323 C121.377258,29.4074194 122.678871,25.8622581 124.00629,22.3283871 C124.967581,19.7687097 125.914355,17.2025806 126.830484,14.6251613 C127.327258,13.23 126.907903,12.2219355 125.646613,11.5525806" id="Fill-189"></path>
                    <path d="M75.813871,17.138871 C75.38,14.8856452 74.2719355,13.0630645 72.196129,11.9308065 C70.9332258,11.2404839 69.5558065,11.0017742 68.146129,10.9937097 C66.4832258,10.9856452 64.8654839,11.2743548 63.4929032,12.2920968 C62.746129,12.8437097 62.0880645,13.5146774 61.3703226,14.1485484 C61.3590323,14.0775806 61.3380645,13.9501613 61.3203226,13.8227419 C61.0558065,11.9356452 60.5670968,11.3469355 58.9380645,11.1969355 C57.5687097,11.071129 56.4832258,11.671129 56.3719355,13.2082258 C56.3541935,13.4598387 56.3364516,13.7130645 56.3348387,13.9662903 C56.3332258,18.6372581 56.3348387,23.3082258 56.3348387,27.9775806 C56.3348387,28.7098387 56.3235484,29.4404839 56.3364516,30.171129 C56.3509677,31.0485484 56.496129,31.9017742 57.3187097,32.3969355 C58.3832258,33.038871 59.5412903,33.0485484 60.6751613,32.6179032 C61.6558065,32.2453226 62.0396774,31.421129 62.0412903,30.4130645 C62.0477419,26.6243548 62.0445161,22.8340323 62.0477419,19.0437097 C62.0477419,18.8695161 62.0348387,18.6630645 62.1154839,18.5243548 C63.0154839,16.9808065 64.2025806,15.7695161 66.0751613,15.5759677 C68.1864516,15.355 69.5477419,16.1985484 70.0783871,18.1582258 C70.2864516,18.9243548 70.3525806,19.7469355 70.3590323,20.5437097 C70.3896774,23.8259677 70.3687097,27.1098387 70.3767742,30.3920968 C70.3783871,31.5646774 70.9009677,32.3420968 71.9332258,32.6872581 C72.296129,32.8082258 72.6929032,32.871129 73.0751613,32.8743548 C74.0154839,32.8824194 74.93,32.7646774 75.5783871,31.9582258 C76.0283871,31.4001613 76.0816129,30.7291935 76.0832258,30.055 C76.0896774,26.6969355 76.1041935,23.338871 76.0751613,19.9824194 C76.0654839,19.0324194 75.9929032,18.0695161 75.813871,17.138871" id="Fill-191"></path>
                    <path d="M105.201613,14.3043548 C105.283871,13.9172581 105.316129,13.5043548 105.285484,13.1091935 C105.203226,12.0591935 104.519355,11.435 103.464516,11.4091935 C102.867742,11.3946774 102.269355,11.4043548 101.674194,11.4027419 C101.322581,11.4027419 100.972581,11.4027419 100.512903,11.4027419 C100.595161,10.1220968 100.582258,8.90758065 100.769355,7.72532258 C100.993548,6.32209677 101.970968,5.63983871 103.396774,5.75758065 C103.953226,5.80435484 104.501613,5.97048387 105.051613,6.0866129 C105.954839,6.27854839 106.595161,5.97209677 106.951613,5.16725806 C107.343548,4.2833871 107.146774,3.02370968 106.414516,2.40919355 C106.017742,2.07532258 105.508065,1.83016129 105.008065,1.67048387 C103.853226,1.29790323 102.654839,1.31887097 101.466129,1.48016129 C99.4209677,1.75758065 97.6774194,2.58983871 96.4274194,4.29467742 C95.4258065,5.66241935 94.9951613,7.22370968 94.9193548,8.88983871 C94.8822581,9.70596774 94.9129032,10.5237097 94.9129032,11.4108065 C94.2516129,11.4108065 93.6822581,11.368871 93.1209677,11.4253226 C92.7677419,11.4624194 92.3887097,11.5833871 92.0935484,11.7769355 C91.4048387,12.2301613 91.166129,13.3833871 91.4854839,14.3914516 C91.7516129,15.2237097 92.3209677,15.6220968 93.2806452,15.6317742 C93.8096774,15.6366129 94.3387097,15.6317742 94.8951613,15.6317742 L94.8951613,16.2479032 C94.8951613,20.7995161 94.8951613,25.351129 94.8967742,29.9027419 C94.8967742,30.1704839 94.8903226,30.4398387 94.916129,30.7075806 C94.9967742,31.551129 95.3580645,32.2075806 96.1677419,32.5672581 C97.0983871,32.9817742 98.0580645,32.9737097 99.0064516,32.6962903 C99.8241935,32.4559677 100.353226,31.8817742 100.514516,31.0317742 C100.582258,30.6833871 100.579032,30.318871 100.579032,29.9624194 C100.583871,25.3801613 100.582258,20.7995161 100.583871,16.218871 C100.583871,16.0317742 100.6,15.8446774 100.609677,15.6285484 C101.633871,15.6285484 102.603226,15.6382258 103.572581,15.6253226 C104.401613,15.6124194 105.029032,15.1172581 105.201613,14.3043548" id="Fill-193"></path>
                    <path d="M13.3324194,20.8264516 C12.2146774,20.3458065 11.0453226,19.9893548 9.905,19.5603226 C8.98887097,19.2151613 8.07112903,18.8732258 7.17758065,18.4748387 C6.74209677,18.2812903 6.39048387,17.9377419 6.24532258,17.4441935 C5.98887097,16.5748387 6.39693548,15.8183871 7.3566129,15.4409677 C8.40177419,15.0280645 9.49209677,15.0216129 10.571129,15.2280645 C11.5179032,15.4087097 12.4437097,15.6909677 13.3808065,15.9264516 C14.4824194,16.2022581 15.4727419,15.6845161 15.7195161,14.7070968 C15.9759677,13.6925806 15.5824194,12.6393548 14.6727419,12.1183871 C14.1630645,11.8248387 13.6066129,11.5764516 13.0404839,11.4264516 C11.1275806,10.9183871 9.18080645,10.8570968 7.22919355,11.1587097 C5.43403226,11.436129 3.78887097,12.0490323 2.40983871,13.3022581 C0.146935484,15.3587097 -0.483709677,20.3603226 3.38564516,22.4441935 C4.68403226,23.1441935 6.12435484,23.5780645 7.50177419,24.1296774 C8.41145161,24.4925806 9.34048387,24.8087097 10.2259677,25.22 C10.6985484,25.4377419 11.0679032,25.8345161 11.1808065,26.3941935 C11.3937097,27.4490323 10.8533871,28.3103226 9.73887097,28.6812903 C8.48725806,29.0990323 7.20177419,29.0587097 5.93725806,28.8216129 C4.91951613,28.6312903 3.93080645,28.2845161 2.92274194,28.0312903 C1.93241935,27.7829032 1.04693548,28.2377419 0.751774194,29.1151613 C0.435645161,30.0603226 0.722741935,31.1248387 1.52112903,31.7248387 C1.90822581,32.0167742 2.34693548,32.2651613 2.79854839,32.4393548 C4.2066129,32.9845161 5.68887097,33.1216129 6.54693548,33.1264516 C9.19693548,33.1103226 11.1646774,32.8748387 13.0146774,32.0054839 C15.9291935,30.6345161 17.4066129,27.6167742 16.6275806,24.5280645 C16.1759677,22.7393548 14.988871,21.5393548 13.3324194,20.8264516" id="Fill-195"></path>
                    <path d="M27.3654839,13.975 C27.3606452,12.5330645 26.7912903,11.641129 25.6493548,11.3879032 C25.1041935,11.2669355 24.5187097,11.2217742 23.9654839,11.2782258 C22.3719355,11.4427419 21.6574194,12.2814516 21.6525806,13.8879032 C21.6493548,15.2459677 21.6525806,16.6040323 21.6525806,17.9620968 C21.6525806,22.0943548 21.6493548,26.2266129 21.6558065,30.3604839 C21.6574194,31.5508065 22.1493548,32.3104839 23.1864516,32.6733871 C23.5590323,32.8040323 23.9719355,32.8717742 24.3687097,32.875 C25.2912903,32.8814516 26.1896774,32.7669355 26.8380645,31.9846774 C27.2977419,31.4298387 27.3622581,30.7620968 27.363871,30.0879032 C27.3719355,27.4169355 27.3670968,24.7475806 27.3670968,22.0766129 C27.3670968,19.3766129 27.3735484,16.675 27.3654839,13.975" id="Fill-197"></path>
                    <path d="M87.7559677,22.0641935 L87.7462903,22.0641935 C87.7462903,19.2141935 87.7543548,16.3658065 87.7414516,13.5158065 C87.7366129,12.5432258 87.1575806,11.7254839 86.2624194,11.4367742 C85.3624194,11.1464516 84.4317742,11.1287097 83.5366129,11.4496774 C82.6801613,11.7577419 82.1930645,12.406129 82.1027419,13.323871 C82.0720968,13.6351613 82.0575806,13.9480645 82.0575806,14.2609677 C82.0543548,19.3787097 82.0543548,24.4948387 82.0575806,29.6125806 C82.0575806,29.9996774 82.0753226,30.3883871 82.101129,30.773871 C82.1656452,31.69 82.7333871,32.4077419 83.6091935,32.6754839 C84.3333871,32.8964516 85.0753226,32.9432258 85.8156452,32.7948387 C86.8269355,32.5932258 87.5059677,32.0109677 87.7075806,30.9674194 C87.7624194,30.6770968 87.7527419,30.373871 87.7527419,30.0754839 C87.7575806,27.4045161 87.7559677,24.7351613 87.7559677,22.0641935" id="Fill-199"></path>
                    <path d="M84.9395161,1.83790323 C84.8056452,1.83790323 84.6717742,1.82983871 84.5379032,1.83951613 C82.0959677,2.00725806 80.6701613,4.69919355 81.9782258,6.73145161 C82.8104839,8.0233871 84.058871,8.39758065 85.5508065,8.20564516 C87.4266129,7.96209677 88.741129,6.025 88.2169355,4.20564516 C87.7862903,2.71532258 86.5540323,1.82016129 84.9395161,1.83790323" id="Fill-201"></path>
                    <path d="M24.6316129,1.8266129 C22.5816129,1.78951613 21.13,3.10403226 21.0993548,5.0266129 C21.0719355,6.83951613 22.4832258,8.225 24.4106452,8.275 C26.3558065,8.3266129 27.896129,6.91370968 27.9187097,5.05564516 C27.9412903,3.26693548 26.5090323,1.86048387 24.6316129,1.8266129" id="Fill-203"></path>
                </g>
                <g id="Group-211" transform="translate(187.096774, 11.290323)">
                    <path d="M17.5180645,20.2379032 C17.5116129,19.3169355 17.4519355,18.3862903 17.2970968,17.4798387 C16.7664516,14.3620968 14.9019355,12.058871 11.5906452,11.4862903 C9.33258065,11.0959677 7.14870968,11.3040323 5.20516129,12.6346774 C4.45193548,13.1508065 3.79225806,13.8040323 3.08741935,14.3959677 C3.11,13.9604839 3.15193548,13.4717742 3.15516129,12.9846774 C3.16483871,11.208871 3.16322581,9.43306452 3.16483871,7.65725806 C3.16483871,6.12016129 3.16967742,4.58145161 3.1616129,3.04435484 C3.15677419,2.17177419 2.73580645,1.73145161 1.8616129,1.67016129 C1.65354839,1.65564516 1.44225806,1.66048387 1.23580645,1.68145161 C0.572903226,1.74758065 0.177741935,2.13306452 0.0970967742,2.78951613 C0.0712903226,2.99596774 0.0696774194,3.20725806 0.0696774194,3.41532258 C0.0680645161,12.6395161 0.0680645161,21.8620968 0.0696774194,31.0862903 C0.0696774194,31.3395161 0.0809677419,31.5943548 0.116451613,31.8443548 C0.176129032,32.258871 0.406774194,32.5508065 0.795483871,32.7201613 C2.09548387,33.2927419 3.16322581,32.6153226 3.16483871,31.2137097 C3.16483871,26.8701613 3.16322581,22.5266129 3.17129032,18.1846774 C3.17129032,17.9701613 3.19870968,17.7233871 3.3083871,17.5491935 C4.76645161,15.2120968 6.76967742,13.7959677 9.64064516,13.958871 C11.3341935,14.0556452 12.7148387,14.7427419 13.5680645,16.2814516 C14.0454839,17.141129 14.2970968,18.0782258 14.3470968,19.0508065 C14.41,20.2879032 14.4277419,21.5266129 14.4325806,22.7637097 C14.4454839,25.6733871 14.4358065,28.5846774 14.4406452,31.4943548 C14.4422581,32.1766129 14.7229032,32.5798387 15.2858065,32.7685484 C15.9987097,33.0056452 16.91,32.8491935 17.2390323,32.3959677 C17.3664516,32.2233871 17.4390323,31.9991935 17.4858065,31.7862903 C17.5325806,31.5701613 17.526129,31.341129 17.5277419,31.1185484 C17.5293548,27.491129 17.5422581,23.8653226 17.5180645,20.2379032" id="Fill-206" fill="#13323D"></path>
                    <g id="Group-210" transform="translate(95.161290, 0.000000)">
                        <mask id="mask-6" fill="white">
                            <use xlink:href="#path-5"></use>
                        </mask>
                        <g id="Clip-209"></g>
                        <path d="M17.5820968,20.3516129 C17.5740323,19.3564516 17.5062903,18.35 17.3304839,17.3725806 C16.9498387,15.2483871 16.0191935,13.3806452 14.0353226,12.3629032 C11.0562903,10.8354839 8.04177419,10.8564516 5.16758065,12.7016129 C4.42887097,13.1741935 3.81112903,13.8354839 3.13854839,14.4112903 C3.15790323,14.0241935 3.195,13.6080645 3.1966129,13.1903226 C3.20629032,9.86290323 3.20951613,6.53387097 3.21274194,3.20645161 C3.21274194,3.07258065 3.21435484,2.93709677 3.20145161,2.80322581 C3.14822581,2.23870968 2.83209677,1.86451613 2.2933871,1.71451613 C0.953064516,1.34032258 0.133709677,1.95806452 0.132096774,3.34354839 C0.130483871,3.37258065 0.132096774,3.40322581 0.132096774,3.43225806 C0.132096774,12.6419355 0.130483871,21.85 0.132096774,31.0580645 C0.132096774,31.2822581 0.132096774,31.5064516 0.153064516,31.7290323 C0.201451613,32.2580645 0.478870968,32.6048387 0.99016129,32.7725806 C2.32887097,33.2080645 3.21274194,32.583871 3.21274194,31.1935484 C3.21435484,27.1790323 3.26919355,23.1629032 3.18209677,19.15 C3.15306452,17.8741935 3.60306452,16.9451613 4.43532258,16.1016129 C4.695,15.8370968 4.97241935,15.583871 5.26274194,15.3516129 C6.95467742,13.9967742 8.87725806,13.5951613 10.9401613,14.1725806 C13.1095161,14.7790323 14.1272581,16.4370968 14.3853226,18.9403226 C14.4853226,19.9016129 14.4756452,20.8774194 14.478871,21.8451613 C14.4901613,25.0387097 14.4853226,28.233871 14.4820968,31.4274194 C14.4820968,32.0112903 14.661129,32.4919355 15.228871,32.7322581 C16.5385484,33.2854839 17.5853226,32.5951613 17.5933871,31.1870968 L17.5933871,31.0080645 C17.5933871,27.4564516 17.611129,23.9032258 17.5820968,20.3516129" id="Fill-208" fill="#13323D" mask="url(#mask-6)"></path>
                    </g>
                </g>
                <g id="Group-220" transform="translate(209.677419, 12.903226)" fill="#13323D">
                    <path d="M36.1564516,25.668871 C36.1548387,25.8043548 36.083871,25.9608065 35.9951613,26.068871 C34.8483871,27.4575806 33.4725806,28.5108065 31.6629032,28.8608065 C30.4209677,29.101129 29.2032258,28.9979032 28.0580645,28.4043548 C26.7354839,27.7172581 26.0403226,26.1753226 26.416129,24.7882258 C26.6241935,24.0237097 27.1258065,23.4769355 27.8258065,23.2204839 C28.6403226,22.9204839 29.5016129,22.668871 30.3596774,22.5882258 C32.2935484,22.4027419 34.2241935,22.5301613 36.1645161,23.0414516 C36.1645161,23.9430645 36.1709677,24.8059677 36.1564516,25.668871 M39.3403226,27.218871 C39.2822581,24.0414516 39.2806452,20.8624194 39.2467742,17.685 C39.2387097,16.9253226 39.2177419,16.1640323 39.1467742,15.4075806 C38.8983871,12.7608065 37.1403226,10.7398387 34.5516129,10.1075806 C31.6612903,9.40112903 28.8403226,9.7366129 26.0870968,10.7575806 C25.5290323,10.9640323 25.0048387,11.3204839 24.5403226,11.6995161 C24.1193548,12.0398387 24.1032258,12.7172581 24.3790323,13.1817742 C24.6306452,13.6091935 25.1548387,13.7866129 25.7177419,13.6204839 C25.9306452,13.5575806 26.1403226,13.4785484 26.3451613,13.3866129 C28.3274194,12.501129 30.3951613,12.2333871 32.5435484,12.5204839 C34.366129,12.7640323 35.5306452,13.8091935 35.9290323,15.601129 C36.2870968,17.218871 36.1516129,18.8640323 36.1403226,20.501129 C36.1403226,20.5220968 36.1080645,20.5446774 36.0790323,20.5785484 C35.4419355,20.4785484 34.8,20.3575806 34.1532258,20.2817742 C31.9612903,20.0285484 29.7741935,20.0317742 27.6258065,20.5946774 C26.1435484,20.9817742 24.783871,21.6108065 23.8983871,22.9479032 C22.2354839,25.4575806 23.1983871,29.1817742 25.9564516,30.5608065 C29.0064516,32.0866129 32.0064516,31.8543548 34.8387097,29.9414516 C35.3870968,29.5704839 35.8629032,29.0930645 36.3967742,28.6430645 C36.4225806,28.7462903 36.4467742,28.8414516 36.4709677,28.9366129 C36.6387097,29.6301613 36.7693548,30.3414516 37.3080645,30.8737097 C37.7774194,31.3382258 38.4596774,31.4398387 39.0370968,31.1430645 C39.5725806,30.8656452 39.7612903,30.3656452 39.6483871,29.6527419 C39.5225806,28.8446774 39.3548387,28.0317742 39.3403226,27.218871" id="Fill-212"></path>
                    <path d="M4.13241935,18.3112903 C4.47274194,16.4903226 5.12919355,14.8677419 6.49209677,13.5806452 C8.82919355,11.3741935 13.6743548,11.7 14.955,15.7096774 C15.2195161,16.5403226 15.3614516,17.4096774 15.5727419,18.3112903 L4.13241935,18.3112903 Z M14.8114516,10.9306452 C12.0872581,9.24193548 9.21629032,9.34354839 6.38241935,10.5903226 C3.755,11.7483871 2.28080645,13.95 1.44854839,16.6209677 C0.777580645,18.7741935 0.637258065,20.9854839 0.929193548,23.2080645 C1.22596774,25.4709677 2.12112903,27.4741935 3.81306452,29.0629032 C5.49854839,30.6435484 7.55983871,31.3516129 9.81790323,31.4887097 C12.0114516,31.6209677 14.171129,31.3903226 16.1791935,30.4112903 C16.6308065,30.1903226 17.0469355,29.8354839 17.3840323,29.4564516 C17.6985484,29.1 17.6727419,28.6193548 17.4179032,28.2 C17.188871,27.8225806 16.7243548,27.6693548 16.2340323,27.783871 C16.0453226,27.8290323 15.8582258,27.8870968 15.6808065,27.9612903 C14.0017742,28.6580645 12.2582258,28.9580645 10.4437097,28.8209677 C8.88080645,28.7032258 7.47919355,28.1903226 6.31629032,27.1129032 C4.46951613,25.4032258 3.95177419,23.1967742 3.93887097,20.7129032 L4.52435484,20.7129032 C7.24209677,20.7129032 9.95822581,20.7145161 12.6743548,20.7112903 C14.0324194,20.7096774 15.3904839,20.7193548 16.7485484,20.683871 C17.7033871,20.6564516 18.2017742,20.2209677 18.3824194,19.2870968 C18.5937097,18.1822581 18.421129,17.0822581 18.1775806,16.0064516 C17.7001613,13.8983871 16.688871,12.0919355 14.8114516,10.9306452 L14.8114516,10.9306452 Z" id="Fill-214"></path>
                    <path d="M66.7337097,28.4098387 C66.361129,28.5082258 65.9901613,28.6469355 65.611129,28.6840323 C65.1095161,28.7308065 64.5869355,28.7727419 64.0982258,28.6824194 C62.7804839,28.4372581 62.1756452,27.5953226 62.1691935,26.0356452 C62.1546774,21.6775806 62.1579032,17.3195161 62.1546774,12.9598387 C62.1546774,12.8598387 62.1740323,12.7598387 62.1869355,12.6195161 L62.6933871,12.6195161 C64.0514516,12.6195161 65.4095161,12.6243548 66.7675806,12.6179032 C67.6385484,12.6146774 68.0804839,12.1759677 68.0756452,11.3420968 C68.0740323,10.5291935 67.6353226,10.0969355 66.7869355,10.0937097 C65.4127419,10.0872581 64.0401613,10.0920968 62.6659677,10.0920968 L62.1546774,10.0920968 C62.1546774,8.71951613 62.1579032,7.40822581 62.1498387,6.09854839 C62.1482258,5.83080645 62.1224194,5.56306452 62.0837097,5.29854839 C62.0175806,4.84209677 61.7659677,4.5533871 61.3062903,4.42758065 C60.5014516,4.205 59.7643548,4.63080645 59.5820968,5.52435484 C59.4369355,6.23725806 59.3885484,6.96951613 59.3030645,7.69370968 C59.2095161,8.48725806 59.1208065,9.27919355 59.0256452,10.0953226 C58.1191935,10.0953226 57.2691935,10.0856452 56.4208065,10.0985484 C55.8224194,10.1066129 55.4256452,10.4033871 55.3095161,10.9420968 C55.1095161,11.8824194 55.5401613,12.6662903 56.5724194,12.6259677 C57.3740323,12.5937097 58.1772581,12.6195161 59.0353226,12.6195161 L59.0353226,13.2259677 C59.0353226,17.5404839 59.0320968,21.8533871 59.0385484,26.1679032 C59.0401613,26.6437097 59.0691935,27.1227419 59.128871,27.5937097 C59.3659677,29.471129 60.4885484,30.7259677 62.328871,31.1582258 C63.5208065,31.438871 64.7240323,31.4033871 65.9224194,31.1759677 C66.6159677,31.0453226 67.2820968,30.8437097 67.8079032,30.3308065 C68.2691935,29.8791935 68.3820968,29.3259677 68.1143548,28.8308065 C67.8772581,28.3937097 67.3724194,28.2420968 66.7337097,28.4098387" id="Fill-216"></path>
                    <path d="M52.663871,28.6545161 C52.3654839,28.6787097 52.0703226,28.7222581 51.7719355,28.7270968 C50.8509677,28.74 50.2235484,28.2916129 50.0074194,27.3980645 C49.8848387,26.8964516 49.8154839,26.3690323 49.813871,25.8529032 C49.8025806,17.8416129 49.8058065,9.83032258 49.8058065,1.81903226 C49.8058065,1.64 49.813871,1.45935484 49.7977419,1.28193548 C49.7493548,0.686774194 49.4493548,0.24483871 48.9106452,0.127096774 C47.7170968,-0.135806452 46.6590323,0.115806452 46.6719355,1.72387097 C46.7058065,5.85612903 46.6832258,9.9883871 46.6832258,14.1206452 C46.6832258,17.94 46.6783871,21.7593548 46.6864516,25.5787097 C46.6880645,26.2190323 46.7090323,26.8625806 46.7687097,27.4980645 C46.8670968,28.5270968 47.163871,29.4916129 47.9412903,30.2270968 C49.1477419,31.3674194 50.6316129,31.4706452 52.163871,31.256129 C52.5896774,31.1964516 53.0154839,30.99 53.3945161,30.7722581 C53.8816129,30.4916129 54.0687097,29.8335484 53.8880645,29.3141935 C53.7154839,28.8174194 53.3170968,28.6029032 52.663871,28.6545161" id="Fill-218"></path>
                </g>
            </g>
        </g>
    </g>
</svg>