<?xml version="1.0" encoding="UTF-8"?>
<svg width="300px" height="129px" viewBox="0 0 300 129" version="1.1" xmlns="http://www.w3.org/2000/svg" xmlns:xlink="http://www.w3.org/1999/xlink">
    <!-- Generator: Sketch 55 (78076) - https://sketchapp.com -->
    <title>Vertical One-Color White Logo</title>
    <desc>Created with Sketch.</desc>
    <defs>
        <polygon id="path-1" points="0.672694449 0.587027027 34.1597739 0.587027027 34.1597739 53.840027 0.672694449 53.840027"></polygon>
    </defs>
    <g id="Page-1" stroke="none" stroke-width="1" fill="none" fill-rule="evenodd">
        <g id="Logos" transform="translate(-84.000000, -117.000000)">
            <g id="Vertical-One-Color-White-Logo" transform="translate(84.000000, 117.000000)">
                <path d="M51.3655946,103.175595 C51.7255946,103.129378 52.088027,103.096946 52.4455946,103.036135 C54.201,102.734514 55.3320811,101.733973 55.7828919,100.00127 C56.2442432,98.228027 55.6426216,96.2861351 54.3145135,95.3164054 C53.0034324,94.358027 51.5082973,94.2088378 49.9815405,94.5428919 C47.3812703,95.1120811 46.3953243,97.3637027 46.8826216,99.843973 C47.2896486,101.919649 49.0077568,103.138297 51.3655946,103.175595 M51.2845135,124.005324 C51.2942432,123.972081 51.3047838,123.939649 51.3153243,123.906405 C51.9672162,123.850459 52.6264054,123.837486 53.2701892,123.729649 C54.6874865,123.490459 56.0326216,123.073703 57.0315405,121.936946 C58.4747838,120.294243 57.9234324,117.904784 55.8801892,117.169378 C55.2607297,116.946405 54.5658649,116.879919 53.901,116.844243 C52.028027,116.742892 50.1420811,116.787486 48.2820811,116.583973 C47.4153243,116.488297 46.9012703,116.698297 46.4634324,117.359919 C46.353973,117.526946 46.2242432,117.681811 46.1220811,117.852892 C44.8977568,119.888838 45.2496486,122.496405 48.0388378,123.379378 C49.0823514,123.709378 50.2004595,123.803432 51.2845135,124.005324 M42.4555946,114.599108 C39.9250541,112.159378 39.9372162,108.417486 43.1950541,105.746676 C42.9737027,105.474243 42.7750541,105.162892 42.513973,104.918027 C38.8458649,101.481811 39.5301892,95.1015405 43.281,92.1064054 C45.2674865,90.5196486 47.5791081,89.871 50.0577568,89.6577568 C51.9282973,89.4972162 53.7712703,89.618027 55.5891081,90.1118108 C55.7228919,90.1482973 55.9604595,90.0437027 56.0593784,89.9277568 C57.1223514,88.6766757 58.1634324,87.4061351 59.2191081,86.1485676 C60.6201892,84.4799189 62.6099189,85.1512703 63.4831622,86.2612703 C64.2777568,87.2699189 64.2664054,88.4528919 63.3664054,89.3788378 C62.4388378,90.3347838 61.4537027,91.2347838 60.4920811,92.1574865 C60.3607297,92.2831622 60.2212703,92.4007297 60.2026216,92.4177568 C60.8431622,93.4847838 61.6037027,94.4285676 62.0220811,95.5053243 C63.4864054,99.2788378 62.0918108,104.374784 57.6445135,106.53073 C54.6720811,107.972351 51.5520811,108.283703 48.3185676,107.674784 C48.1012703,107.634243 47.7477568,107.737216 47.6237027,107.900189 C47.3115405,108.312081 46.983973,108.768568 46.863973,109.256676 C46.6247838,110.228838 47.0974865,111.062351 48.0728919,111.352622 C48.8828919,111.593432 49.7431622,111.737757 50.588027,111.777486 C52.5201892,111.868297 54.4588378,111.817216 56.3893784,111.921811 C57.9566757,112.006946 59.4931622,112.315054 60.9226216,113.030189 C63.5253243,114.331541 64.6799189,116.482622 64.6037027,119.332622 C64.5128919,122.726676 62.7437027,125.087757 59.8847838,126.691541 C56.9415405,128.342351 53.7177568,128.815865 50.3893784,128.792351 C47.8928919,128.773703 45.4345135,128.545054 43.1115405,127.551 C40.6685676,126.505865 38.8953243,124.838027 38.5247838,122.088568 C38.1023514,118.954784 39.4815405,116.622892 42.0047838,114.876405 C42.1385676,114.783973 42.2820811,114.705324 42.4555946,114.599108" id="Fill-22" fill="#FFFFFE"></path>
                <path d="M143.072757,110.43827 C143.187892,109.970432 143.278703,109.494486 143.421405,109.034757 C144.397622,105.892054 145.371405,102.748541 146.371946,99.6131351 C147.173838,97.1012432 147.989514,94.5934054 148.843297,92.0985405 C149.605459,89.8752973 151.585459,89.148 153.691135,90.2669189 C155.233297,91.0866486 155.746541,92.3182703 155.140054,94.0258378 C154.019514,97.1790811 152.860054,100.318541 151.682757,103.451514 C150.059514,107.775568 148.467081,112.113405 146.741676,116.396919 C145.595189,119.242865 144.066,121.899081 142.021946,124.226108 C139.231135,127.403676 135.719514,128.84773 131.513027,128.529081 C130.288703,128.436649 129.081405,128.143135 128.293297,127.042865 C127.729784,126.256378 127.566811,125.381514 127.827892,124.445838 C128.108432,123.436378 129.020595,122.880973 130.265189,122.932865 C131.230054,122.973405 132.202216,123.104757 133.157351,123.026108 C134.771676,122.893946 136.048703,122.033676 136.999784,120.763135 C137.672757,119.863946 138.231405,118.876378 138.79573,117.900973 C138.917351,117.690162 138.934378,117.335027 138.849243,117.100703 C136.184919,109.747459 133.501946,102.402324 130.823027,95.0547568 C130.523838,94.2325946 130.197081,93.408 130.378703,92.5063784 C130.647892,91.175027 131.963838,90.0844865 133.531135,89.868 C135.348973,89.6174595 136.439514,90.2482703 137.020865,91.9825946 C138.83627,97.3955676 140.632216,102.814216 142.419243,108.236919 C142.654378,108.950432 142.790595,109.696378 142.973027,110.426919 C143.00627,110.430973 143.039514,110.434216 143.072757,110.43827" id="Fill-24" fill="#FFFFFE"></path>
                <path d="M75.0455676,93.4433514 C75.9236757,92.6674054 76.7296216,91.8468649 77.6425946,91.1706486 C79.3217838,89.9268649 81.300973,89.5733514 83.3361081,89.5838919 C85.0607027,89.5928108 86.7455676,89.8855135 88.2917838,90.7295676 C90.8312432,92.1160541 92.1869189,94.344973 92.718,97.1017297 C92.9377297,98.2409189 93.0269189,99.419027 93.0374595,100.580919 C93.0739459,104.688486 93.0561081,108.796865 93.048,112.904432 C93.0463784,113.729838 92.9807027,114.551189 92.4301622,115.234703 C91.6355676,116.219838 90.5182703,116.365784 89.3677297,116.355243 C88.8998919,116.351189 88.4142162,116.274973 87.9707027,116.127405 C86.7066486,115.704162 86.0677297,114.751459 86.0644865,113.317946 C86.0555676,109.301189 86.0815135,105.284432 86.0442162,101.268486 C86.0352973,100.29227 85.9542162,99.2860541 85.7012432,98.3495676 C85.0517838,95.952 83.3863784,94.9198378 80.8031351,95.189027 C78.510973,95.4274054 77.058,96.9087568 75.9577297,98.7971351 C75.8588108,98.9674054 75.8758378,99.2187568 75.8758378,99.4328108 C75.8701622,104.069838 75.875027,108.707676 75.8661081,113.344703 C75.8636757,114.576324 75.395027,115.585784 74.1942162,116.041459 C72.8069189,116.568486 71.3904324,116.556324 70.0874595,115.771459 C69.0828649,115.165784 68.9052973,114.120649 68.8866486,113.047946 C68.8720541,112.153622 68.8834054,111.259297 68.8834054,110.364162 C68.8834054,104.649568 68.8825946,98.934973 68.8858378,93.2203784 C68.8858378,92.9106486 68.9077297,92.6009189 68.9296216,92.292 C69.0658378,90.4117297 70.3939459,89.6779459 72.0707027,89.832 C74.0628649,90.0152432 74.6604324,90.7352432 74.9847568,93.0452432 C75.0066486,93.2009189 75.0325946,93.3574054 75.0455676,93.4433514" id="Fill-26" fill="#FFFFFE"></path>
                <path d="M116.087027,90.0934865 C116.087027,89.0086216 116.048919,88.0072703 116.095135,87.0091622 C116.188378,84.969973 116.715405,83.0605135 117.940541,81.387 C119.468919,79.299973 121.602973,78.2815946 124.103514,77.9434865 C125.55973,77.7464595 127.025676,77.7205135 128.438919,78.1753784 C129.049459,78.3715946 129.672973,78.6707838 130.159459,79.0786216 C131.055405,79.8310541 131.296216,81.3724054 130.816216,82.4548378 C130.38,83.4383514 129.597568,83.8153784 128.491622,83.5802432 C127.817838,83.4367297 127.148108,83.234027 126.467027,83.1772703 C124.722973,83.0321351 123.526216,83.8664595 123.253784,85.5845676 C123.023514,87.0310541 123.038919,88.5172703 122.939189,90.0837568 C123.501081,90.0837568 123.93,90.0837568 124.358919,90.0837568 C125.088649,90.0853784 125.819189,90.0732162 126.54973,90.0910541 C127.840541,90.1226757 128.677297,90.8856486 128.777838,92.1715946 C128.815946,92.6548378 128.776216,93.1591622 128.675676,93.6342973 C128.464054,94.6283514 127.697027,95.2348378 126.681892,95.2494324 C125.496486,95.2656486 124.311081,95.2534865 123.056757,95.2534865 C123.044595,95.5186216 123.025135,95.7472703 123.025135,95.9759189 C123.023514,101.581054 123.025135,107.187 123.02027,112.792135 C123.02027,113.229162 123.023514,113.674297 122.941622,114.099973 C122.742162,115.140243 122.096757,115.844027 121.095405,116.13673 C119.934324,116.476459 118.761081,116.487 117.621892,115.979432 C116.632703,115.539162 116.189189,114.735649 116.091081,113.703486 C116.059459,113.377541 116.066757,113.04673 116.066757,112.718351 C116.065135,107.149703 116.065135,101.580243 116.065135,96.0115946 L116.065135,95.2591622 C115.384865,95.2591622 114.737027,95.2648378 114.089189,95.2575405 C112.915946,95.2453784 112.217838,94.7597027 111.894324,93.7413243 C111.502703,92.5080811 111.794595,91.0956486 112.636216,90.5410541 C112.997027,90.3042973 113.462432,90.1559189 113.895405,90.1121351 C114.580541,90.0424054 115.277838,90.0934865 116.087027,90.0934865" id="Fill-28" fill="#FFFFFE"></path>
                <path d="M7.96727027,116.664081 C6.91645946,116.656784 5.10348649,116.490568 3.38051351,115.82327 C2.82835135,115.609216 2.29078378,115.305162 1.81727027,114.948405 C0.840243243,114.213811 0.489162162,112.911649 0.87672973,111.755432 C1.23672973,110.68273 2.32078378,110.124892 3.53132432,110.428946 C4.76537838,110.739486 5.97510811,111.163541 7.22132432,111.397054 C8.76916216,111.686514 10.3405135,111.735973 11.8729459,111.225162 C13.2351081,110.771108 13.8967297,109.716243 13.6364595,108.427054 C13.4986216,107.74273 13.0461892,107.256243 12.4688919,106.989486 C11.3848378,106.486784 10.2480811,106.099216 9.13645946,105.654892 C7.45078378,104.981108 5.68727027,104.449216 4.09889189,103.593811 C-0.634621622,101.043 0.135648649,94.923 2.90456757,92.4078649 C4.59267568,90.8746216 6.60591892,90.1238108 8.80240541,89.7848919 C11.1894324,89.4167838 13.5724054,89.4905676 15.9115946,90.1116486 C16.6048378,90.2965135 17.2859189,90.6005676 17.9102432,90.9589459 C19.0218649,91.5970541 19.5034865,92.8862432 19.1905135,94.1267838 C18.8888919,95.3227297 17.6759189,95.955973 16.3275405,95.6186757 C15.1826757,95.3316486 14.0483514,94.9854324 12.8897027,94.7640811 C11.5705135,94.5111081 10.2367297,94.520027 8.95727027,95.0243514 C7.78321622,95.4873243 7.28456757,96.4124595 7.59754054,97.4754324 C7.77510811,98.0802973 8.20483784,98.4994865 8.73916216,98.7370541 C9.83213514,99.2227297 10.9551081,99.6435405 12.0748378,100.065162 C13.4702432,100.589757 14.9021351,101.025162 16.2691622,101.613811 C18.2953784,102.486243 19.7475405,103.954622 20.2997027,106.142189 C21.2548378,109.922189 19.4459189,113.613811 15.879973,115.291378 C13.6178108,116.355973 11.2097027,116.644622 7.96727027,116.664081" id="Fill-30" fill="#FFFFFE"></path>
                <path d="M33.4418919,103.143405 C33.4418919,106.410973 33.4475676,109.678541 33.4378378,112.946108 C33.4354054,113.771514 33.3559459,114.588 32.7940541,115.265838 C32.0010811,116.223405 30.9008108,116.363676 29.7721622,116.355568 C29.2881081,116.352324 28.7821622,116.268811 28.3256757,116.109081 C27.0567568,115.664757 26.4543243,114.735568 26.4527027,113.278541 C26.4454054,108.221514 26.4494595,103.165297 26.4494595,98.1082703 C26.4494595,96.4477297 26.4462162,94.7863784 26.4502703,93.125027 C26.4551351,91.1596216 27.3291892,90.1323243 29.2791892,89.9312432 C29.9562162,89.8615135 30.672973,89.9174595 31.3386486,90.065027 C32.7372973,90.3747568 33.4337838,91.4677297 33.4394595,93.2312432 C33.4483784,96.5352973 33.4418919,99.8393514 33.4418919,103.143405" id="Fill-32" fill="#FFFFFE"></path>
                <path d="M107.329216,103.128405 C107.329216,106.395973 107.330838,109.663541 107.326784,112.931108 C107.326784,113.295162 107.337324,113.666514 107.269216,114.020838 C107.024351,115.298676 106.19327,116.011378 104.955162,116.258676 C104.049486,116.439486 103.141378,116.381919 102.255162,116.111108 C101.184892,115.783541 100.490027,114.905432 100.411378,113.785703 C100.378946,113.313 100.357054,112.837865 100.357054,112.364351 C100.353,106.10327 100.353811,99.8421892 100.357054,93.5811081 C100.357054,93.1984054 100.375703,92.8148919 100.413,92.4338108 C100.52327,91.3108378 101.120027,90.5178649 102.167595,90.1416486 C103.261378,89.7475946 104.400568,89.7702973 105.502459,90.1254324 C106.597054,90.4781351 107.306514,91.4794865 107.312189,92.6689459 C107.328405,96.1554324 107.317865,99.6419189 107.317865,103.128405 L107.329216,103.128405 Z" id="Fill-34" fill="#FFFFFE"></path>
                <path d="M103.883757,78.3808378 C105.858081,78.3589459 107.366189,79.4543514 107.892405,81.2778649 C108.535378,83.5035405 106.92673,85.8743514 104.630514,86.1711081 C102.806189,86.4070541 101.278622,85.9497568 100.261054,84.3686757 C98.6597027,81.8827297 100.404568,78.5884054 103.391595,78.3824595 C103.555378,78.3711081 103.719973,78.3808378 103.883757,78.3808378" id="Fill-36" fill="#FFFFFE"></path>
                <path d="M25.7733243,82.2823784 C25.8106216,79.931027 27.5862973,78.3215676 30.0941351,78.366973 C32.3911622,78.4083243 34.1441351,80.1304865 34.1165676,82.3180541 C34.0873784,84.5899459 32.2038649,86.3185946 29.8241351,86.256973 C27.4662973,86.1953514 25.7384595,84.4999459 25.7733243,82.2823784" id="Fill-38" fill="#FFFFFE"></path>
                <path d="M165.557514,93.7466757 C166.420216,93.0218108 167.226973,92.2223514 168.148865,91.5907297 C170.526973,89.9618108 173.198595,89.7088378 175.961838,90.1864054 C180.013459,90.8869459 182.295081,93.7045135 182.945351,97.5201892 C183.133459,98.6285676 183.208054,99.7677568 183.215351,100.893973 C183.244541,105.33073 183.226703,109.768297 183.225892,114.205865 C183.225892,114.479108 183.233189,114.759649 183.174811,115.023973 C183.118865,115.283432 183.028054,115.558297 182.874,115.769919 C182.470216,116.323703 181.355351,116.516676 180.482919,116.224784 C179.795351,115.995324 179.451568,115.501541 179.449946,114.666405 C179.442649,111.105324 179.454,107.545054 179.439405,103.983973 C179.43373,102.469378 179.411027,100.953973 179.334,99.4418108 C179.273189,98.2507297 178.96427,97.1042432 178.381297,96.0526216 C177.336162,94.1699189 175.648865,93.3291081 173.575622,93.2107297 C170.062378,93.0112703 167.612919,94.7447838 165.825892,97.6045135 C165.69373,97.8161351 165.659676,98.1193784 165.659676,98.3804595 C165.649946,103.694514 165.652378,109.008568 165.650757,114.322622 C165.650757,116.039108 164.345351,116.866946 162.752108,116.167216 C162.278595,115.958838 161.995622,115.60127 161.922649,115.094514 C161.879676,114.788838 161.865081,114.476676 161.865081,114.166946 C161.861838,102.88127 161.863459,91.5964054 161.865081,80.3107297 C161.865081,80.0561351 161.867514,79.7982973 161.899135,79.5453243 C161.997243,78.741 162.480486,78.2699189 163.292919,78.1888378 C163.546703,78.1628919 163.802919,78.1564054 164.056703,78.1742432 C165.128595,78.2496486 165.643459,78.7888378 165.648324,79.8574865 C165.657243,81.7385676 165.652378,83.6188378 165.652378,85.4999189 C165.650757,87.6728919 165.652378,89.8458649 165.639405,92.0188378 C165.636162,92.6164054 165.58427,93.2123514 165.557514,93.7466757" id="Fill-40" fill="#FFFFFE"></path>
                <path d="M282.05327,93.7656486 C282.877054,93.0610541 283.634351,92.2518649 284.536784,91.6721351 C288.052459,89.4156486 291.742459,89.3897027 295.387054,91.2594324 C297.813811,92.504027 298.952189,94.7897027 299.418405,97.3875405 C299.634081,98.5834865 299.716784,99.8159189 299.725703,101.032946 C299.761378,105.378892 299.740297,109.724838 299.740297,114.071595 L299.740297,114.290514 C299.730568,116.014297 298.449486,116.859162 296.848135,116.181324 C296.15327,115.887 295.933541,115.299162 295.933541,114.584027 C295.938405,110.67673 295.944081,106.768622 295.930297,102.860514 C295.926243,101.675919 295.936784,100.483216 295.815162,99.3067297 C295.498946,96.2434865 294.253541,94.2148378 291.601378,93.4729459 C289.076514,92.7667297 286.72273,93.2580811 284.653541,94.9153784 C284.299216,95.199973 283.960297,95.5097027 283.640027,95.834027 C282.62327,96.8653784 282.07273,98.0013243 282.106784,99.5629459 C282.213811,104.473216 282.146514,109.38673 282.144892,114.299432 C282.144892,116.000514 281.06327,116.763486 279.424622,116.229973 C278.799486,116.026459 278.459757,115.600784 278.400568,114.954568 C278.375432,114.682135 278.375432,114.40727 278.375432,114.133216 C278.373811,102.866189 278.373811,91.5991622 278.373811,80.3321351 L278.373811,80.2226757 C278.377054,78.5280811 279.380027,77.7724054 281.021919,78.2288919 C281.679486,78.4121351 282.065432,78.8718649 282.131919,79.5626757 C282.146514,79.7256486 282.144892,79.8910541 282.144892,80.0548378 C282.140838,84.1267297 282.137595,88.1994324 282.126243,92.2713243 C282.124622,92.7805135 282.076784,93.2905135 282.05327,93.7656486" id="Fill-42" fill="#FFFFFE"></path>
                <path d="M233.656054,106.297946 C231.282811,105.672 228.922541,105.516324 226.555784,105.742541 C225.504973,105.84227 224.450919,106.150378 223.455243,106.516054 C222.599027,106.831459 221.984432,107.498757 221.729027,108.436054 C221.268486,110.13227 222.119027,112.019027 223.738216,112.859027 C225.139297,113.585514 226.627946,113.712 228.148216,113.418486 C230.362541,112.990378 232.047405,111.702 233.450919,110.000919 C233.557946,109.870378 233.645514,109.677405 233.647135,109.512811 C233.664973,108.456324 233.656054,107.399838 233.656054,106.297946 M233.94227,113.150919 C233.287946,113.701459 232.705784,114.286865 232.036865,114.739297 C228.568216,117.080108 224.899297,117.363892 221.167946,115.498216 C217.794162,113.810919 216.614432,109.253351 218.647946,106.182811 C219.732811,104.546595 221.398216,103.777946 223.210378,103.303622 C225.839027,102.616054 228.514703,102.612 231.196865,102.92173 C231.988216,103.013351 232.773081,103.16173 233.55227,103.283351 C233.587946,103.242 233.627676,103.216054 233.627676,103.189297 C233.643081,101.185784 233.807676,99.1741622 233.368216,97.1933514 C232.882541,95.0009189 231.456324,93.7222703 229.227405,93.4247027 C226.598757,93.0744324 224.068216,93.4003784 221.641459,94.4852432 C221.393351,94.5963243 221.137135,94.6944324 220.875243,94.7706486 C220.186865,94.9733514 219.545514,94.7576757 219.236595,94.2347027 C218.898486,93.6647027 218.921189,92.8376757 219.434432,92.4201081 C220.004432,91.9563243 220.645784,91.5192973 221.326865,91.2671351 C224.695784,90.0192973 228.146595,89.609027 231.684973,90.4725405 C234.849568,91.2452432 237.003081,93.719027 237.305514,96.9582162 C237.393081,97.8825405 237.418216,98.8141622 237.428757,99.7433514 C237.470108,103.632 237.470108,107.520649 237.543081,111.408486 C237.560919,112.403351 237.766054,113.397405 237.920108,114.386595 C238.056324,115.258216 237.828486,115.871189 237.172541,116.209297 C236.465514,116.574162 235.630378,116.449297 235.055514,115.88173 C234.397946,115.229838 234.238216,114.359027 234.031459,113.510108 C234.003081,113.394162 233.973892,113.278216 233.94227,113.150919" id="Fill-44" fill="#FFFFFE"></path>
                <path d="M194.463973,100.509973 L208.463432,100.509973 C208.204784,99.4072703 208.029649,98.3434865 207.704514,97.3275405 C206.140459,92.4205135 200.211,92.0224054 197.352081,94.7224054 C195.684243,96.2978108 194.88073,98.2818649 194.463973,100.509973 L194.463973,100.509973 Z M194.228027,103.448351 C194.242622,106.48727 194.876676,109.188081 197.137216,111.279973 C198.560189,112.597541 200.275054,113.225108 202.186135,113.369432 C204.406946,113.536459 206.539378,113.169162 208.594784,112.316189 C208.812081,112.226189 209.04073,112.154838 209.270189,112.100514 C209.873432,111.959432 210.440189,112.148351 210.72073,112.608892 C211.030459,113.122135 211.063703,113.710784 210.677757,114.146189 C210.266676,114.609973 209.757486,115.044568 209.205324,115.314568 C206.746946,116.512135 204.103703,116.795108 201.42073,116.632946 C198.659919,116.465919 196.135054,115.599162 194.073973,113.663757 C192.003162,111.721865 190.909378,109.270784 190.544514,106.501865 C190.186135,103.781595 190.360459,101.07673 191.181,98.4407838 C192.197757,95.1724054 194.001,92.4797027 197.218297,91.0632162 C200.684514,89.5372703 204.197757,89.4132162 207.532622,91.4783514 C209.828838,92.9005135 211.066135,95.109973 211.649919,97.6907838 C211.946676,99.0059189 212.159108,100.351865 211.898838,101.703486 C211.679108,102.847541 211.069378,103.380243 209.900189,103.411865 C208.240459,103.45727 206.578297,103.445108 204.916135,103.447541 C201.592622,103.451595 198.269108,103.448351 194.944784,103.448351 L194.228027,103.448351 Z" id="Fill-46" fill="#FFFFFE"></path>
                <path d="M261.640865,93.5459189 C260.591676,93.5459189 259.607351,93.5151081 258.627892,93.554027 C257.364649,93.6026757 256.836811,92.6434865 257.082486,91.4937568 C257.225189,90.8337568 257.710865,90.4713243 258.440595,90.4607838 C259.480054,90.4461892 260.518703,90.4567297 261.630324,90.4567297 C261.744649,89.4594324 261.853297,88.4888919 261.969243,87.5191622 C262.074649,86.6329459 262.132216,85.7361892 262.308973,84.8637568 C262.531135,83.7724054 263.435189,83.2502432 264.421135,83.5218649 C264.982216,83.6767297 265.290324,84.0294324 265.370595,84.5880811 C265.418432,84.9115946 265.450865,85.239973 265.452486,85.5667297 C265.461405,87.1705135 265.456541,88.7751081 265.456541,90.4526757 L266.084919,90.4526757 C267.764919,90.4534865 269.444919,90.4478108 271.124919,90.4551081 C272.163568,90.4607838 272.699514,90.9886216 272.702757,91.9826757 C272.706811,93.0042973 272.166811,93.5394324 271.103027,93.5442973 C269.440054,93.5515946 267.777892,93.5459189 266.11573,93.5467297 L265.497081,93.5467297 C265.480865,93.7186216 265.458162,93.8410541 265.458162,93.9626757 C265.461405,99.2953784 265.456541,104.628081 265.474378,109.960784 C265.481676,111.870243 266.224378,112.899973 267.83627,113.199162 C268.433027,113.309432 269.073568,113.259162 269.686541,113.200784 C270.151135,113.156189 270.604378,112.985919 271.060054,112.865919 C271.841676,112.660784 272.459514,112.846459 272.748973,113.380784 C273.076541,113.986459 272.938703,114.663486 272.374378,115.215649 C271.732216,115.843216 270.91573,116.090514 270.066811,116.251054 C268.601676,116.529973 267.129243,116.572946 265.668973,116.229162 C263.417351,115.700514 262.04627,114.165649 261.755189,111.867811 C261.682216,111.290514 261.644919,110.704297 261.644919,110.122946 C261.636811,104.844568 261.640865,99.567 261.640865,94.2886216 L261.640865,93.5459189 Z" id="Fill-48" fill="#FFFFFE"></path>
                <path d="M246.527189,95.3830541 C246.527189,90.3268378 246.555568,85.2698108 246.514216,80.2144054 C246.497189,78.2457568 247.792865,77.9384595 249.252324,78.2603514 C249.911514,78.4054865 250.279622,78.9454865 250.338811,79.6735946 C250.356649,79.8908919 250.34773,80.1114324 250.34773,80.3303514 C250.34773,90.1330541 250.344486,99.9349459 250.359081,109.737649 C250.359081,110.36927 250.445838,111.013865 250.594216,111.628459 C250.859351,112.720622 251.627189,113.270351 252.755027,113.254135 C253.11827,113.248459 253.480703,113.194135 253.844757,113.165757 C254.644216,113.102514 255.131514,113.365216 255.342324,113.972514 C255.562865,114.607378 255.334216,115.413324 254.739081,115.755486 C254.274486,116.023054 253.755568,116.274405 253.232595,116.348189 C251.358,116.610892 249.543405,116.485216 248.066108,115.089 C247.115027,114.189 246.752595,113.010081 246.632595,111.751703 C246.558,110.972514 246.532865,110.186027 246.531243,109.401973 C246.523135,104.72927 246.527189,100.056568 246.527189,95.3830541" id="Fill-50" fill="#FFFFFE"></path>
                <g id="Group-54" transform="translate(145.135135, 0.000000)">
                    <mask id="mask-2" fill="white">
                        <use xlink:href="#path-1"></use>
                    </mask>
                    <g id="Clip-53"></g>
                    <path d="M17.0428378,39.4294865 C14.4766216,35.9794865 11.4709459,33.4935405 8.82040541,31.3011081 C4.88310811,28.0432703 1.77202703,25.4705676 0.890675676,20.5205676 C0.748783784,19.7211081 0.681486486,18.8697568 0.673378378,17.9843514 C0.623918919,12.1886757 3.26797297,4.88408108 5.04283784,0.540567568 C6.24527027,2.44191892 29.7474324,21.6751622 33.6336486,29.6648919 C37.3560811,37.3189459 20.1895946,52.1681351 17.7741892,53.840027 C17.8001351,53.7873243 17.8204054,53.7362432 17.8439189,53.6827297 C20.1125676,48.8121892 19.4055405,42.6021892 17.0428378,39.4294865" id="Fill-52" fill="#FFFFFE" mask="url(#mask-2)"></path>
                </g>
                <path d="M138.253865,29.4604865 C140.821703,32.9104865 143.825757,35.3964324 146.477108,37.5888649 C150.416027,40.8467027 153.524676,43.4194054 154.406838,48.3694054 C154.549541,49.1688649 154.616027,50.0202162 154.623324,50.9056216 C154.673595,56.7012973 152.02873,64.0058919 150.253865,68.3494054 C149.053054,66.4480541 125.550081,47.2156216 121.664676,39.2250811 C117.942243,31.571027 135.10873,16.7218378 137.523324,15.0499459 C137.498189,15.1026486 137.477108,15.1537297 137.452784,15.2072432 C135.185757,20.0777838 135.891973,26.2877838 138.253865,29.4604865" id="Fill-55" fill="#FFFFFE"></path>
            </g>
        </g>
    </g>
</svg>