<?xml version="1.0" encoding="UTF-8"?>
<svg width="300px" height="130px" viewBox="0 0 300 130" version="1.1" xmlns="http://www.w3.org/2000/svg" xmlns:xlink="http://www.w3.org/1999/xlink">
    <!-- Generator: Sketch 55 (78076) - https://sketchapp.com -->
    <title>Vertical One-Color Black</title>
    <desc>Created with Sketch.</desc>
    <g id="Page-1" stroke="none" stroke-width="1" fill="none" fill-rule="evenodd">
        <g id="Logos" transform="translate(-94.000000, -687.000000)" fill="#000000">
            <g id="Vertical-One-Color-Black" transform="translate(94.000000, 687.000000)">
                <path d="M42.6060854,114.879609 C40.0758363,112.441174 40.0875801,108.700249 43.3448754,106.030142 C43.123879,105.756833 42.9253025,105.446157 42.6648043,105.201673 C38.9975445,101.766085 39.6818861,95.3881495 43.4313523,92.3934875 C45.4171174,90.8070107 47.7285053,90.1579004 50.2064413,89.9454448 C52.0758363,89.7853025 53.9185409,89.9059431 55.7356228,90.3991815 C55.8690747,90.4354804 56.107153,90.3319217 56.2053737,90.2155516 C57.2687189,88.964306 58.3085765,87.6938434 59.3644484,86.4372598 C60.7651601,84.7685765 62.7541281,85.4401068 63.6274377,86.5493594 C64.4217438,87.5582562 64.41,88.7401068 63.5110676,89.6667972 C62.5843772,90.6223132 61.598968,91.5223132 60.6370463,92.4447331 C60.5057295,92.5707117 60.3669395,92.6881495 60.3477224,92.7041637 C60.9882918,93.7707117 61.7484342,94.714484 62.1669395,95.7917082 C63.6306406,99.5635943 62.2363345,104.658256 57.7907829,106.813772 C54.8185409,108.255053 51.7000356,108.56573 48.4672954,107.957189 C48.2505694,107.916619 47.896121,108.020178 47.7722776,108.182456 C47.4605338,108.594555 47.1327758,109.051495 47.0132028,109.539395 C46.7740569,110.509858 47.2459431,111.343665 48.2217438,111.634057 C49.0320641,111.875338 49.8914947,112.019466 50.7359786,112.058968 C52.6672954,112.149715 54.6060854,112.09847 56.5363345,112.203096 C58.1025267,112.288505 59.6388256,112.595979 61.0672954,113.311281 C63.6701423,114.612705 64.8231673,116.762883 64.7473665,119.612349 C64.6576868,123.005231 62.8886477,125.36573 60.029573,126.969288 C57.0882918,128.619822 53.8651601,129.092776 50.5374021,129.068221 C48.0423843,129.050071 45.5847331,128.821601 43.2616014,127.827651 C40.8199644,126.783523 39.0466548,125.115907 38.6761922,122.366797 C38.254484,119.234413 39.6327758,116.90274 42.1555516,115.157189 C42.2890036,115.064306 42.4331317,114.985302 42.6060854,114.879609 M51.4320641,124.283167 C51.4427402,124.250071 51.4523488,124.216975 51.4630249,124.184947 C52.1153381,124.128363 52.7740569,124.115552 53.4167616,124.007722 C54.8345552,123.768577 56.1786833,123.352206 57.1779715,122.215196 C58.6203203,120.573203 58.0694306,118.183879 56.0270819,117.449359 C55.4067972,117.226228 54.712847,117.160036 54.0477224,117.123737 C52.1751246,117.022313 50.2907829,117.067153 48.4309964,116.863238 C47.5640925,116.768221 47.0495018,116.978541 46.612847,117.639395 C46.5028826,117.805943 46.3737011,117.961815 46.27121,118.132633 C45.0477224,120.167509 45.398968,122.774626 48.1875801,123.657544 C49.2306406,123.987438 50.3484342,124.081388 51.4320641,124.283167 M51.5132028,103.459324 C51.8729893,103.413416 52.2359786,103.381388 52.5925623,103.319466 C54.3477224,103.018399 55.4783274,102.018043 55.9288612,100.28637 C56.3900712,98.5141281 55.7890036,96.5721352 54.4619573,95.6027402 C53.1509253,94.645089 51.6562633,94.4956228 50.129573,94.8287189 C47.5299288,95.397758 46.5445196,97.6493594 47.0313523,100.129431 C47.4381139,102.203808 49.1569751,103.421957 51.5132028,103.459324" id="Fill-446"></path>
                <path d="M143.194484,110.720071 C143.309786,110.252456 143.400534,109.776299 143.542527,109.317224 C144.518327,106.175231 145.491993,103.032171 146.492349,99.8987189 C147.294128,97.3876868 148.109786,94.8798577 148.963879,92.3859075 C149.724021,90.1631317 151.704448,89.4360854 153.809786,90.5549466 C155.351423,91.3738078 155.866014,92.6058363 155.258541,94.3129537 C154.137544,97.4645552 152.978114,100.603345 151.802669,103.73573 C150.178826,108.058505 148.587011,112.39516 146.861744,116.677367 C145.716192,119.522562 144.187367,122.177722 142.14395,124.504057 C139.353203,127.681281 135.84395,129.124698 131.638612,128.806548 C130.414057,128.713665 129.206584,128.420071 128.418683,127.320427 C127.85605,126.533594 127.692705,125.658149 127.953203,124.722918 C128.235053,123.715089 129.14573,123.158861 130.390569,123.211174 C131.354626,123.251744 132.327224,123.38306 133.281673,123.304057 C134.895907,123.171673 136.171708,122.312242 137.122954,121.041779 C137.795552,120.142847 138.353915,119.155302 138.918683,118.180569 C139.040391,117.970249 139.057473,117.614733 138.972064,117.379858 C136.308363,110.029324 133.626512,102.686263 130.947865,95.3410676 C130.648932,94.5190036 130.322242,93.6948043 130.504804,92.7937367 C130.772776,91.4624199 132.089146,90.3723843 133.656406,90.1556584 C135.47242,89.9047687 136.563523,90.5357295 137.144306,92.2695374 C138.959253,97.6812811 140.754982,103.098363 142.541103,108.518648 C142.775979,109.232883 142.912633,109.978078 143.094128,110.708327 C143.128292,110.712598 143.161388,110.715801 143.194484,110.720071" id="Fill-448"></path>
                <path d="M75.1866192,93.7299288 C76.0641993,92.9537722 76.8702491,92.1338434 77.7830605,91.4580427 C79.4624199,90.2153381 81.4407117,89.8608897 83.4745196,89.8715658 C85.1997865,89.8801068 86.8834164,90.1737011 88.4293238,91.0171174 C90.9670463,92.4028826 92.3229181,94.6309964 92.8545907,97.3875801 C93.073452,98.5256584 93.1631317,99.704306 93.1727402,100.865872 C93.2101068,104.971922 93.1919573,109.079039 93.184484,113.186157 C93.1823488,114.010356 93.1172242,114.83242 92.5663345,115.514626 C91.7720285,116.500036 90.6553025,116.646299 89.5044128,116.635623 C89.0367972,116.631352 88.551032,116.555552 88.1079715,116.407153 C86.8439146,115.984377 86.206548,115.032064 86.2022776,113.598256 C86.1937367,109.582954 86.2193594,105.567651 86.1819929,101.552349 C86.173452,100.576548 86.0923132,99.5708541 85.8392883,98.6345552 C85.1901779,96.237758 83.5246975,95.2064413 80.9421352,95.4744128 C78.651032,95.7135587 77.1990747,97.1943416 76.098363,99.0818861 C75.9990747,99.2527046 76.0172242,99.5035943 76.0161566,99.7171174 C76.0108185,104.353772 76.0161566,108.989359 76.006548,113.624947 C76.0044128,114.856975 75.5357295,115.865872 74.3357295,116.321744 C72.9488968,116.849146 71.5321708,116.836335 70.2307473,116.051637 C69.226121,115.446299 69.0478292,114.401103 69.0296797,113.329217 C69.0147331,112.434555 69.0264769,111.539893 69.0264769,110.646299 C69.0264769,104.933488 69.0254093,99.2206762 69.0286121,93.5067972 C69.0286121,93.1971886 69.051032,92.8875801 69.073452,92.5790391 C69.2090391,90.698968 70.5360854,89.965516 72.212242,90.1192527 C74.2044128,90.3028826 74.8022776,91.0224555 75.1257651,93.3317082 C75.1481851,93.4875801 75.1738078,93.643452 75.1866192,93.7299288" id="Fill-450"></path>
                <path d="M116.21637,90.381032 C116.21637,89.2963345 116.179004,88.294911 116.223843,87.297758 C116.317794,85.2586121 116.844128,83.3497153 118.069751,81.6778292 C119.597509,79.5906406 121.730605,78.5732028 124.230961,78.2347687 C125.686121,78.0372598 127.151957,78.011637 128.56548,78.4664413 C129.175089,78.6628826 129.798577,78.9618149 130.284342,79.3696441 C131.180071,80.1223132 131.421352,81.6618149 130.941993,82.7443772 C130.505338,83.7276512 129.722776,84.1045196 128.617794,83.8696441 C127.944128,83.7265836 127.274733,83.5237367 126.593594,83.467153 C124.850178,83.3219573 123.653381,84.1557651 123.381139,85.8735587 C123.150534,87.3201779 123.166548,88.8052313 123.066192,90.3714235 C123.628826,90.3714235 124.05694,90.3714235 124.485053,90.3714235 C125.215302,90.3724911 125.946619,90.3607473 126.675801,90.3788968 C127.966548,90.4109253 128.803559,91.1732028 128.903915,92.4586121 C128.941281,92.9411744 128.901779,93.4461566 128.801423,93.9201779 C128.590036,94.9141281 127.823488,95.5216014 126.808185,95.5354804 C125.623132,95.5525623 124.438078,95.5397509 123.18363,95.5397509 C123.171886,95.8045196 123.152669,96.0329893 123.152669,96.2614591 C123.150534,101.865374 123.152669,107.469288 123.148399,113.073203 C123.147331,113.509858 123.150534,113.955053 123.069395,114.381032 C122.869751,115.419822 122.223843,116.123381 121.223488,116.416975 C120.062989,116.756477 118.88968,116.767153 117.750534,116.260036 C116.761922,115.81911 116.317794,115.016263 116.219573,113.984947 C116.188612,113.658256 116.196085,113.328363 116.196085,112.999537 C116.19395,107.431922 116.195018,101.864306 116.195018,96.297758 L116.195018,95.545089 C115.514947,95.545089 114.866904,95.550427 114.218861,95.5440214 C113.046619,95.53121 112.348399,95.0454448 112.024911,94.0280071 C111.633096,92.794911 111.924555,91.3824555 112.766904,90.8294306 C113.127758,90.5913523 113.592171,90.4440214 114.025623,90.4002491 C114.709964,90.3297865 115.407117,90.381032 116.21637,90.381032" id="Fill-452"></path>
                <path d="M8.12754448,116.944164 C7.07701068,116.93669 5.26419929,116.770142 3.54213523,116.10395 C2.99017794,115.889359 2.45209964,115.586157 1.97914591,115.229573 C1.0033452,114.495053 0.652099644,113.192562 1.03964413,112.036335 C1.39836299,110.964448 2.4830605,110.407153 3.69266904,110.711423 C4.92576512,111.021032 6.13537367,111.444875 7.38128114,111.678683 C8.92932384,111.968007 10.4997865,112.017117 12.0318149,111.506797 C13.3940925,111.05306 14.0549466,109.998256 13.795516,108.709644 C13.656726,108.025302 13.2051246,107.539537 12.6286121,107.271566 C11.5439146,106.769786 10.4069039,106.382242 9.29551601,105.938114 C7.61081851,105.264448 5.84818505,104.732776 4.26064057,103.877616 C-0.472099644,101.327082 0.297651246,95.2096441 3.06597865,92.6943416 C4.753879,91.1623132 6.76633452,90.4117794 8.96241993,90.0722776 C11.3485409,89.7039502 13.7314591,89.7776157 16.0695374,90.4000356 C16.7634875,90.5836655 17.4435587,90.8879359 18.0670463,91.2455872 C19.1795018,91.8840214 19.6609964,93.1726335 19.3471174,94.4132028 C19.0460498,95.6089324 17.8332384,96.2420285 16.4859075,95.9046619 C15.3403559,95.6174733 14.206548,95.2715658 13.0492527,95.0505694 C11.7296797,94.7975445 10.3962278,94.8060854 9.1172242,95.31 C7.94391459,95.7733452 7.44427046,96.6979004 7.75814947,97.7612456 C7.93537367,98.365516 8.36562278,98.785089 8.8994306,99.0220996 C9.99160142,99.5078648 11.1147331,99.9285053 12.2346619,100.349146 C13.628968,100.874413 15.0606406,101.31 16.4271886,101.898256 C18.4524555,102.770498 19.9044128,104.23847 20.4563701,106.424947 C21.4118861,110.204306 19.6022776,113.895053 16.0375089,115.57121 C13.7762989,116.635623 11.3688256,116.924947 8.12754448,116.944164" id="Fill-454"></path>
                <path d="M33.5949822,103.427189 C33.5949822,106.694093 33.6003203,109.960996 33.5907117,113.226833 C33.5885765,114.0521 33.5085053,114.868826 32.9469395,115.546762 C32.1547687,116.503345 31.0551246,116.64427 29.9255872,116.63573 C29.4419573,116.632527 28.9369751,116.548185 28.4800356,116.38911 C27.2117082,115.944982 26.609573,115.016157 26.6074377,113.558861 C26.601032,108.503701 26.6042349,103.449609 26.6042349,98.3933808 C26.6042349,96.7332384 26.601032,95.0720285 26.6053025,93.4118861 C26.609573,91.4464057 27.4839502,90.4193594 29.4334164,90.2186477 C30.1102847,90.1492527 30.8266548,90.2047687 31.4917794,90.3520996 C32.8903559,90.6627758 33.5875089,91.7549466 33.5917794,93.5175801 C33.6013879,96.8207829 33.5949822,100.123986 33.5949822,103.427189" id="Fill-456"></path>
                <path d="M107.461174,103.412242 C107.461174,106.679146 107.462242,109.944982 107.459039,113.211886 C107.457972,113.575943 107.469715,113.947473 107.401388,114.301922 C107.155836,115.57879 106.325231,116.29089 105.087865,116.538577 C104.182527,116.720071 103.273986,116.66242 102.388932,116.391246 C101.318114,116.063488 100.623096,115.185907 100.54516,114.065979 C100.512064,113.594093 100.490712,113.119004 100.490712,112.64605 C100.487509,106.386619 100.487509,100.127189 100.490712,93.867758 C100.490712,93.4855516 100.509929,93.10121 100.547295,92.7211388 C100.65726,91.5980071 101.254057,90.8058363 102.301388,90.428968 C103.394626,90.0360854 104.532705,90.0574377 105.635552,90.4129537 C106.72879,90.7663345 107.438754,91.7666904 107.444093,92.9560142 C107.460107,96.4417794 107.449431,99.9264769 107.449431,103.412242 L107.461174,103.412242 Z" id="Fill-458"></path>
                <path d="M104.016726,78.6717438 C105.990747,78.6493238 107.498221,79.7446975 108.024555,81.5681851 C108.66726,83.7930961 107.059431,86.1632028 104.762989,86.46 C102.939502,86.6948754 101.411744,86.2379359 100.394306,84.6578648 C98.7950178,82.1724555 100.538434,78.8788612 103.524555,78.6728114 C103.6879,78.6621352 103.853381,78.6717438 104.016726,78.6717438" id="Fill-460"></path>
                <path d="M25.9285409,82.5720641 C25.9659075,80.2211744 27.7413523,78.6122776 30.2481139,78.6581851 C32.5445552,78.6987544 34.2965125,80.4208185 34.2687544,82.608363 C34.2409964,84.8791815 32.3566548,86.6076512 29.9780071,86.5457295 C27.6217794,86.4838078 25.8933096,84.7895018 25.9285409,82.5720641" id="Fill-462"></path>
                <path d="M165.673345,94.0332384 C166.534911,93.3083274 167.340961,92.5097509 168.263381,91.8777224 C170.639893,90.2496085 173.312135,89.9965836 176.074057,90.4738078 C180.124591,91.1741637 182.406085,93.9905338 183.054128,97.8051246 C183.243096,98.9133096 183.316762,100.052456 183.325302,101.17879 C183.355196,105.614733 183.338114,110.050676 183.334911,114.486619 C183.334911,114.759929 183.342384,115.040712 183.284733,115.304413 C183.228149,115.563843 183.13847,115.839288 182.983665,116.049609 C182.581174,116.603701 181.465516,116.79694 180.593274,116.50548 C179.90573,116.275943 179.561957,115.781637 179.56089,114.946762 C179.553416,111.387331 179.56516,107.8279 179.551281,104.267402 C179.544875,102.753523 179.522456,101.238577 179.445587,99.7268327 C179.384733,98.5364413 179.076192,97.3898221 178.493274,96.3382206 C177.449146,94.4560142 175.760178,93.6158007 173.687936,93.4972954 C170.176548,93.2976512 167.728505,95.0303915 165.942384,97.8894662 C165.808932,98.1019217 165.774769,98.4051246 165.774769,98.6656228 C165.76516,103.978078 165.768363,109.290534 165.767295,114.602989 C165.766228,116.319715 164.460534,117.147117 162.867651,116.446762 C162.394698,116.239644 162.111779,115.881993 162.039181,115.374875 C161.995409,115.069537 161.98153,114.756726 161.98153,114.447117 C161.978327,103.165623 161.979395,91.8830605 161.980463,80.6015658 C161.980463,80.3464057 161.983665,80.0891103 162.014626,79.8360854 C162.113915,79.0321708 162.597544,78.5613523 163.408932,78.4791459 C163.661957,78.4545907 163.919253,78.4481851 164.172278,78.4652669 C165.243096,78.5410676 165.758754,79.0791459 165.764093,80.1478292 C165.772633,82.0279004 165.768363,83.9090391 165.767295,85.7891103 C165.766228,87.9617082 165.767295,90.134306 165.754484,92.3058363 C165.751281,92.9026335 165.700036,93.4994306 165.673345,94.0332384" id="Fill-464"></path>
                <path d="M282.135587,94.052242 C282.959786,93.3476157 283.714591,92.538363 284.617794,91.9586477 C288.132384,89.7038434 291.820996,89.677153 295.464769,91.546548 C297.891459,92.7903203 299.029537,95.0760854 299.496085,97.6735943 C299.709609,98.8682562 299.792883,100.101352 299.803559,101.317367 C299.83879,105.662562 299.817438,110.007758 299.817438,114.351886 C299.817438,114.425552 299.817438,114.498149 299.81637,114.570747 C299.807829,116.293879 298.52669,117.138363 296.925267,116.461495 C296.230249,116.166833 296.011388,115.579644 296.011388,114.865409 C296.015658,110.957936 296.022064,107.05153 296.008185,103.145125 C296.004982,101.960071 296.014591,100.767544 295.892883,99.5920996 C295.576868,96.5291103 294.332028,94.5017082 291.680071,93.7597153 C289.156228,93.0540214 286.803203,93.5451246 284.735231,95.2020641 C284.379715,95.4860498 284.041281,95.7956584 283.722064,96.1202135 C282.705694,97.1515302 282.154804,98.2864057 282.188968,99.8483274 C282.29573,104.757224 282.229537,109.669324 282.227402,114.580356 C282.227402,116.281068 281.145907,117.043345 279.508185,116.509537 C278.88363,116.30669 278.54306,115.880712 278.483274,115.234804 C278.458719,114.962562 278.457651,114.688185 278.457651,114.413808 C278.456584,103.150463 278.457651,91.8860498 278.457651,80.6227046 C278.457651,80.5864057 278.457651,80.5490391 278.457651,80.5127402 C278.459786,78.8184342 279.463345,78.0636299 281.103203,78.5205694 C281.761922,78.7031317 282.147331,79.163274 282.213523,79.8529537 C282.229537,80.0162989 282.227402,80.1807117 282.227402,80.3451246 C282.222064,84.4159431 282.218861,88.4878292 282.207117,92.5586477 C282.20605,93.0679004 282.159075,93.577153 282.135587,94.052242" id="Fill-466"></path>
                <path d="M234.038007,113.431708 C233.383559,113.982598 232.802776,114.567651 232.132313,115.02032 C228.665765,117.359466 224.997438,117.643452 221.268256,115.778327 C217.894591,114.091495 216.714875,109.534911 218.748683,106.465516 C219.832313,104.829929 221.496726,104.062313 223.30847,103.588292 C225.93694,102.89968 228.611317,102.896477 231.293167,103.205018 C232.08427,103.296833 232.868968,103.446299 233.648327,103.56694 C233.682491,103.52637 233.724128,103.49968 233.724128,103.472989 C233.738007,101.470142 233.903488,99.4598221 233.464698,97.4783274 C232.978932,95.2865125 231.552598,94.0085765 229.323416,93.7117794 C226.696014,93.3616014 224.166833,93.6872242 221.74121,94.7719217 C221.492456,94.8829537 221.23516,94.9811744 220.974662,95.0569751 C220.28605,95.2598221 219.646548,95.0430961 219.33694,94.521032 C218.998505,93.9509253 219.019858,93.1245907 219.533381,92.707153 C220.103488,92.2438078 220.744057,91.807153 221.426263,91.5541281 C224.794591,90.307153 228.245125,89.896121 231.781068,90.7598221 C234.94548,91.5327758 237.097794,94.0064413 237.400996,97.243452 C237.487473,98.1680071 237.513096,99.098968 237.523772,100.027794 C237.565409,103.914982 237.565409,107.803238 237.638007,111.689359 C237.656157,112.684377 237.861139,113.678327 238.014875,114.66694 C238.15153,115.539181 237.921993,116.151993 237.267544,116.489359 C236.560783,116.854484 235.72484,116.729573 235.15153,116.161601 C234.492811,115.510356 234.332669,114.640249 234.126619,113.791495 C234.098861,113.675125 234.070036,113.558754 234.038007,113.431708 M233.752954,106.580819 C231.379644,105.955196 229.019146,105.799324 226.65331,106.025658 C225.602776,106.126014 224.549039,106.433488 223.552954,106.798612 C222.696726,107.114626 222.082847,107.781886 221.828754,108.718185 C221.368612,110.413559 222.219502,112.300036 223.83694,113.140249 C225.237651,113.866228 226.726975,113.993274 228.246192,113.69968 C230.459359,113.271566 232.144057,111.982954 233.546904,110.28331 C233.654733,110.151993 233.74121,109.959822 233.743345,109.794342 C233.760427,108.73847 233.752954,107.682598 233.752954,106.580819" id="Fill-468"></path>
                <path d="M194.335089,103.732206 C194.350036,106.770641 194.983132,109.469573 197.243274,111.561032 C198.665338,112.87847 200.380996,113.506228 202.290961,113.650356 C204.510534,113.817972 206.64363,113.450712 208.697722,112.597687 C208.915516,112.50694 209.143986,112.436477 209.373523,112.382028 C209.975658,112.240036 210.542562,112.430071 210.822278,112.890214 C211.134021,113.403737 211.164982,113.990925 210.779573,114.426512 C210.369609,114.890925 209.860356,115.325445 209.307331,115.594484 C206.850747,116.792349 204.208399,117.075267 201.52548,116.912989 C198.765694,116.746441 196.241851,115.879537 194.180285,113.945018 C192.111246,112.003025 191.01694,109.552847 190.652883,106.785587 C190.295231,104.065302 190.468185,101.361032 191.288114,98.7261566 C192.305552,95.4592527 194.108754,92.766726 197.324413,91.3510676 C200.788826,89.8243772 204.301281,89.7016014 207.635445,91.7653025 C209.930819,93.1873665 211.168185,95.3962633 211.751103,97.9766904 C212.048968,99.2909253 212.260356,100.636121 212.000925,101.987722 C211.780996,103.131139 211.171388,103.663879 210.002349,103.695907 C208.343274,103.740747 206.680996,103.729004 205.019786,103.731139 C201.697367,103.735409 198.374947,103.732206 195.052527,103.732206 L194.335089,103.732206 Z M194.571032,100.795196 L208.565338,100.795196 C208.306975,99.6923488 208.131886,98.6290036 207.808399,97.6126335 C206.243274,92.7069395 200.315872,92.3097865 197.457865,95.0087189 C195.790249,96.583452 194.98847,98.5670819 194.571032,100.795196 L194.571032,100.795196 Z" id="Fill-470"></path>
                <path d="M261.727794,93.8325267 C260.679395,93.8325267 259.696121,93.8015658 258.71605,93.84 C257.454128,93.8891103 256.925658,92.9303915 257.172278,91.7805694 C257.313203,91.1207829 257.798968,90.7588612 258.530285,90.7481851 C259.568007,90.7332384 260.607865,90.7449822 261.717117,90.7449822 C261.83242,89.7467616 261.941317,88.7773665 262.055552,87.8079715 C262.161246,86.9218505 262.219964,86.0250534 262.397189,85.1528114 C262.619253,84.0617082 263.522456,83.5396441 264.507865,83.8118861 C265.068363,83.9656228 265.376904,84.3190036 265.458043,84.8773665 C265.50395,85.2008541 265.537046,85.5286121 265.539181,85.8553025 C265.547722,87.4588612 265.542384,89.0624199 265.542384,90.7407117 L266.170142,90.7407117 C267.850569,90.7407117 269.529929,90.7353737 271.209288,90.742847 C272.248078,90.7481851 272.784021,91.2755872 272.788292,92.2695374 C272.791495,93.2912456 272.252349,93.826121 271.186868,93.8303915 C269.525658,93.8378648 267.864448,93.8325267 266.202171,93.8325267 L265.582954,93.8325267 C265.56694,94.0054804 265.54452,94.1271886 265.54452,94.2488968 C265.547722,99.5805694 265.542384,104.912242 265.561601,110.242847 C265.569075,112.151744 266.31,113.180925 267.921032,113.479858 C268.518897,113.59089 269.158399,113.539644 269.772278,113.481993 C270.235623,113.437153 270.688292,113.267402 271.145231,113.146762 C271.925658,112.941779 272.543808,113.127544 272.833132,113.661352 C273.16089,114.267758 273.023167,114.944626 272.458399,115.496584 C271.816762,116.123274 271.001103,116.370961 270.152349,116.531103 C268.68758,116.809751 267.215338,116.852456 265.755907,116.509751 C263.505374,115.980214 262.133488,114.44605 261.843096,112.148541 C261.770498,111.572028 261.733132,110.985907 261.733132,110.404057 C261.724591,105.1279 261.727794,99.8517438 261.727794,94.5755872 L261.727794,93.8325267 Z" id="Fill-472"></path>
                <path d="M246.619217,95.6691459 C246.619217,90.6139858 246.646975,85.5588256 246.605338,80.5047331 C246.589324,78.5371174 247.884342,78.2296441 249.343772,78.5509964 C250.002491,78.6961922 250.370819,79.2364057 250.430605,79.9645196 C250.447687,80.1823132 250.438078,80.402242 250.438078,80.6211032 C250.439146,90.4207473 250.434875,100.220391 250.449822,110.020036 C250.45089,110.650996 250.536299,111.295836 250.684698,111.909715 C250.950534,113.001886 251.718149,113.551708 252.844484,113.534626 C253.208541,113.529288 253.570463,113.47484 253.93452,113.446014 C254.734164,113.383025 255.220996,113.646726 255.432384,114.253132 C255.653381,114.888363 255.423843,115.694413 254.829181,116.03605 C254.364769,116.302954 253.84484,116.554911 253.322776,116.628577 C251.44911,116.89121 249.634164,116.765231 248.158719,115.369858 C247.207473,114.469858 246.844484,113.29121 246.724911,112.032491 C246.650178,111.254199 246.624555,110.467367 246.623488,109.684804 C246.614947,105.012918 246.619217,100.341032 246.619217,95.6691459" id="Fill-474"></path>
                <path d="M162.294769,39.7315302 C159.728221,36.2820641 156.72395,33.7977224 154.074128,31.6048399 C150.136762,28.3486121 147.027865,25.776726 146.147082,20.8272598 C146.004021,20.0286833 145.936762,19.1777936 145.929288,18.2927402 C145.880178,12.49879 148.522527,5.19523132 150.297972,0.85430605 C151.499039,2.75466192 174.995125,21.9824199 178.87911,29.9692527 C182.600819,37.6219217 165.438897,52.4660498 163.025018,54.1379359 C163.050641,54.0856228 163.070925,54.0333096 163.09548,53.9809964 C165.362028,49.1116014 164.656335,42.9034164 162.294769,39.7315302" id="Fill-476"></path>
                <path d="M138.376762,29.7653381 C140.94331,33.2148043 143.94758,35.6991459 146.597402,37.8920285 C150.534769,41.1482562 153.643665,43.7201423 154.525516,48.6696085 C154.667509,49.4681851 154.734769,50.3190747 154.742242,51.2041281 C154.791352,56.9980783 152.149004,64.301637 150.373559,68.6425623 C149.172491,66.7422064 125.676406,47.5144484 121.79242,39.5276157 C118.070712,31.8749466 135.232633,17.0308185 137.646512,15.3589324 C137.62089,15.4112456 137.600605,15.4635587 137.57605,15.5158719 C135.309502,20.3852669 136.016263,26.593452 138.376762,29.7653381" id="Fill-478"></path>
            </g>
        </g>
    </g>
</svg>